<svg width="68" height="120" viewBox="0 0 68 120" fill="none" xmlns="http://www.w3.org/2000/svg">
<path d="M13.3021 83.7251C13.3021 83.7251 5.31645 89.0849 4.87842 101.597C4.7324 105.794 6.81868 119.158 6.81868 119.158L53.5225 119.344L44.7871 83.5254L30.0934 80.1963L13.3021 83.7251Z" fill="#52B2E5"/>
<path d="M31.144 93.0137L24.7812 119.238L40.6852 119.344L31.144 93.0137Z" fill="#263238"/>
<path d="M30.904 87.3345C30.9542 87.6177 30.9823 87.9042 30.9882 88.1917C31.0248 88.7687 31.0697 89.4789 31.1202 90.2668C31.1708 91.0546 31.1988 91.812 31.2101 92.3418C31.2291 92.6294 31.2225 92.9181 31.1904 93.2046C31.1402 92.9214 31.1121 92.6348 31.1062 92.3474C31.0697 91.7731 31.0247 91.0602 30.9742 90.2751C30.9237 89.49 30.8956 88.7299 30.8872 88.1972C30.8665 87.9097 30.8722 87.621 30.904 87.3345Z" fill="#263238"/>
<path d="M33.784 90.2256C33.784 90.2395 33.6801 90.2617 33.5032 90.3588C33.2714 90.4963 33.0866 90.6992 32.9725 90.9414C32.8843 91.1155 32.8431 91.3091 32.8529 91.5036C32.8628 91.698 32.9233 91.8867 33.0287 92.0512C33.1493 92.2573 33.3304 92.4224 33.5479 92.5246C33.7655 92.6269 34.0094 92.6615 34.2473 92.624C34.4852 92.5864 34.706 92.4784 34.8805 92.3142C35.055 92.15 35.1749 91.9373 35.2245 91.7044C35.2741 91.5179 35.2744 91.322 35.2252 91.1354C35.176 90.9488 35.0791 90.7779 34.9437 90.639C34.7593 90.4433 34.5196 90.307 34.2558 90.2478C34.0704 90.2062 33.975 90.2173 33.9581 90.2034C33.9413 90.1896 33.9862 90.2034 34.0367 90.1868C34.1131 90.176 34.1906 90.176 34.267 90.1868C34.5514 90.2278 34.8146 90.3593 35.0167 90.5613C35.1593 90.7003 35.2686 90.8691 35.3368 91.0552C35.4122 91.2733 35.4229 91.5082 35.3677 91.7321C35.3131 91.9918 35.1797 92.2289 34.9855 92.4119C34.7912 92.595 34.5451 92.7153 34.28 92.7568C34.0149 92.7984 33.7432 92.7592 33.5012 92.6446C33.2591 92.5299 33.0581 92.3452 32.9248 92.115C32.8025 91.9192 32.7391 91.693 32.7423 91.463C32.7505 91.2695 32.8013 91.0802 32.8911 90.9081C33.0197 90.6535 33.2287 90.447 33.4864 90.32C33.5544 90.2849 33.6273 90.2596 33.7026 90.2451C33.7559 90.2229 33.7812 90.2201 33.784 90.2256Z" fill="#263238"/>
<path d="M38.8724 104.543C38.8724 104.543 38.7685 104.582 38.5916 104.676C38.3607 104.814 38.1769 105.017 38.0638 105.259C37.9755 105.433 37.9343 105.626 37.9441 105.821C37.954 106.015 38.0145 106.204 38.1199 106.368C38.2405 106.575 38.4216 106.74 38.6391 106.842C38.8567 106.944 39.1006 106.979 39.3385 106.941C39.5764 106.904 39.7972 106.796 39.9717 106.631C40.1462 106.467 40.2661 106.255 40.3157 106.022C40.365 105.835 40.3651 105.639 40.316 105.453C40.2668 105.266 40.17 105.095 40.0349 104.956C39.8515 104.761 39.6127 104.625 39.3498 104.565C39.1616 104.523 39.0521 104.535 39.0521 104.521C39.0769 104.51 39.1037 104.504 39.1308 104.504C39.2063 104.495 39.2827 104.495 39.3582 104.504C39.6439 104.546 39.9081 104.678 40.1107 104.881C40.253 105.019 40.3615 105.187 40.428 105.372C40.5061 105.59 40.5169 105.826 40.4589 106.049C40.4064 106.31 40.2742 106.549 40.0802 106.733C39.8862 106.918 39.6397 107.039 39.3738 107.081C39.108 107.122 38.8356 107.083 38.5933 106.967C38.351 106.851 38.1505 106.664 38.0188 106.432C37.8939 106.238 37.8304 106.011 37.8363 105.78C37.8432 105.587 37.8941 105.397 37.9851 105.225C38.1138 104.971 38.3227 104.764 38.5804 104.637C38.6488 104.603 38.7215 104.578 38.7966 104.562C38.8208 104.552 38.8464 104.546 38.8724 104.543Z" fill="#263238"/>
<path d="M22.3624 94.1465C22.3332 94.1906 22.2993 94.2315 22.2613 94.2686C22.194 94.3462 22.0929 94.46 21.9553 94.6015C21.5614 94.9986 21.1412 95.3694 20.6973 95.7112C19.2193 96.8306 17.5147 97.6226 15.6993 98.0333C14.7026 98.2695 13.6749 98.3519 12.6527 98.2774C11.8097 98.2172 10.9996 97.9292 10.3109 97.4451C9.85095 97.1132 9.48146 96.6738 9.23549 96.1662C9.17371 96.0279 9.12301 95.885 9.08386 95.7389C9.06801 95.6886 9.0595 95.6363 9.05859 95.5836C9.07263 95.5836 9.11475 95.7944 9.28884 96.1384C9.54673 96.6239 9.91834 97.0415 10.3727 97.3563C11.0513 97.8173 11.8424 98.0903 12.6639 98.147C13.6727 98.2102 14.6854 98.1242 15.6684 97.8918C17.4648 97.4849 19.1563 96.7141 20.6356 95.6279C21.0812 95.2976 21.5077 94.9429 21.9132 94.5654L22.2417 94.2519C22.3175 94.177 22.3568 94.1465 22.3624 94.1465Z" fill="#263238"/>
<path d="M22.3624 96.7417C22.3332 96.7858 22.2993 96.8267 22.2613 96.8638C22.194 96.9415 22.0929 97.058 21.9553 97.1995C20.2475 98.9132 18.0751 100.103 15.6993 100.626C14.7027 100.863 13.675 100.946 12.6527 100.873C11.81 100.811 11.0002 100.524 10.3109 100.04C9.85058 99.7101 9.48095 99.2714 9.23549 98.7643C9.17319 98.6252 9.12248 98.4814 9.08386 98.3342C9.06774 98.2839 9.05923 98.2316 9.05859 98.1789C9.07263 98.1789 9.11475 98.3897 9.28884 98.7337C9.54654 99.2202 9.91814 99.6387 10.3727 99.9545C11.0516 100.415 11.8427 100.687 12.6639 100.742C13.6727 100.807 14.6856 100.721 15.6684 100.487C17.4642 100.08 19.1554 99.3101 20.6356 98.226C21.0813 97.8949 21.5079 97.5392 21.9132 97.1606L22.2417 96.8471C22.2776 96.8074 22.3181 96.772 22.3624 96.7417Z" fill="#263238"/>
<path d="M22.7743 95.958C22.7844 95.9943 22.7909 96.0315 22.7939 96.069C22.7939 96.1494 22.8136 96.2604 22.8304 96.3991C22.8641 96.6987 22.9119 97.126 22.9708 97.6725C23.0888 98.7822 23.3134 100.372 23.4145 102.361C23.4722 103.446 23.4487 104.534 23.3443 105.615C23.2293 106.861 22.946 108.086 22.5019 109.258C22.0123 110.561 21.2365 111.74 20.2303 112.712C19.6962 113.223 19.0957 113.661 18.4445 114.016C17.7708 114.378 17.0428 114.632 16.288 114.767C14.7829 115.009 13.2395 114.727 11.9217 113.968C10.6928 113.28 9.65725 112.3 8.90885 111.116C8.24895 110.047 7.77444 108.876 7.5049 107.651C7.26495 106.587 7.13512 105.501 7.11741 104.411C7.11145 102.839 7.22408 101.269 7.45436 99.7143C7.53579 99.1595 7.59756 98.7433 7.63968 98.4465C7.66215 98.3078 7.6818 98.1996 7.69303 98.1164C7.69822 98.0787 7.70668 98.0416 7.7183 98.0054C7.72204 98.0432 7.72204 98.0813 7.7183 98.1191C7.7183 98.2024 7.69584 98.3106 7.67899 98.4493C7.64249 98.7489 7.58914 99.1761 7.51894 99.7199C7.31368 101.274 7.21985 102.841 7.23815 104.408C7.26182 105.489 7.3954 106.564 7.63688 107.618C7.91075 108.826 8.38514 109.981 9.04083 111.036C9.77433 112.201 10.7907 113.166 11.9975 113.844C13.2866 114.585 14.7963 114.861 16.2684 114.623C17.0079 114.493 17.7211 114.245 18.3799 113.888C19.0206 113.541 19.6117 113.11 20.1377 112.609C21.131 111.654 21.8981 110.493 22.384 109.211C22.8255 108.051 23.1088 106.838 23.2263 105.604C23.336 104.528 23.365 103.446 23.3134 102.367C23.2263 100.383 23.0326 98.785 22.9175 97.678C22.8613 97.1232 22.8248 96.6932 22.8023 96.4019C22.8023 96.2632 22.7855 96.1522 22.7799 96.069C22.7743 95.9857 22.7743 95.958 22.7743 95.958Z" fill="#263238"/>
<g opacity="0.2">
<path opacity="0.2" d="M8.16077 109.698C8.66619 111.39 8.8824 111.828 9.82866 113.18C10.7025 114.46 11.9813 115.418 13.4649 115.904C14.5256 116.266 15.6622 116.354 16.7669 116.159C17.8716 115.965 18.9078 115.495 19.7771 114.794C21.4927 113.377 22.0992 111.188 22.3969 109.703C21.6499 110.697 20.8553 112.109 19.9147 112.927C18.974 113.746 17.7301 114.461 16.489 114.675C14.8043 114.952 12.7966 114.453 11.3562 113.549C9.91571 112.644 9.04526 111.024 8.15234 109.701" fill="black"/>
</g>
<g opacity="0.2">
<path opacity="0.2" d="M9.36328 98.9375C9.68354 99.643 10.1727 100.261 10.7886 100.738C11.4045 101.215 12.1286 101.537 12.8984 101.676C14.4175 101.953 16.3859 101.479 17.3349 100.069C13.9935 101.229 10.6718 101.257 9.36328 98.9375Z" fill="black"/>
</g>
<path d="M36.8229 94.8449C36.7513 94.857 36.6782 94.857 36.6067 94.8449C36.4165 94.819 36.2287 94.7781 36.0451 94.7228C34.7937 94.3561 33.7206 93.5513 33.0266 92.4591C32.9208 92.2958 32.8269 92.1252 32.7458 91.9487C32.6924 91.8211 32.6672 91.7517 32.6784 91.7462C32.6896 91.7406 32.83 92.0069 33.1052 92.4036C33.4675 92.9151 33.9069 93.3689 34.4081 93.7491C34.9129 94.1245 35.4737 94.4202 36.0704 94.6257C36.5281 94.7672 36.8257 94.8199 36.8229 94.8449Z" fill="#263238"/>
<g opacity="0.2">
<path opacity="0.2" d="M32.9375 91.9268C33.2829 93.0865 34.5857 94.1686 35.7454 94.5487C35.9722 94.6322 36.2143 94.6672 36.4558 94.6513C36.5765 94.6431 36.6939 94.6088 36.7996 94.5508C36.9054 94.4927 36.997 94.4125 37.0679 94.3156C37.3122 93.9466 37.1016 93.4222 36.7422 93.1614C36.3598 92.931 35.9335 92.7808 35.4899 92.7203C34.5942 92.5149 33.7855 92.9616 33.0442 92.2181" fill="black"/>
</g>
<g opacity="0.2">
<path opacity="0.2" d="M8.10352 89.7798C10.1982 91.5885 13.1577 91.6662 15.8224 90.8894C18.4871 90.1127 20.8093 88.6507 23.0724 87.0527C20.6043 87.5382 18.4984 88.6507 16.0077 89.0141C13.6295 89.3608 11.1557 89.3969 8.81672 88.6118" fill="black"/>
</g>
<path d="M48.2709 117.566C48.2553 117.58 48.2372 117.59 48.2176 117.597C48.164 117.625 48.1087 117.65 48.0519 117.672C47.8336 117.759 47.6039 117.815 47.3696 117.838C46.501 117.909 45.6344 117.68 44.9183 117.189C43.9861 116.604 43.1381 115.619 42.2311 114.526C41.2581 113.326 40.3839 112.051 39.617 110.714C38.225 108.281 37.1594 105.679 36.4468 102.974C36.166 101.936 36.0032 101.087 35.8993 100.496C35.8544 100.219 35.8179 99.9832 35.7898 99.8167C35.7759 99.7378 35.7665 99.6581 35.7617 99.5781C35.7888 99.6538 35.8086 99.7318 35.8207 99.8112L35.9555 100.485C36.0762 101.071 36.2643 101.917 36.5451 102.946C37.2849 105.632 38.3592 108.217 39.7433 110.642C40.5078 111.973 41.3752 113.243 42.3378 114.442C43.2336 115.536 44.0703 116.52 44.9745 117.103C45.673 117.593 46.52 117.833 47.3752 117.783C47.6823 117.751 47.9837 117.678 48.2709 117.566Z" fill="#263238"/>
<g opacity="0.2">
<path opacity="0.2" d="M38.1758 107.33C38.1758 107.33 42.3203 112.479 45.3444 113.741C46.3693 114.171 47.498 114.521 48.1972 115.376C48.3719 115.571 48.5014 115.802 48.5765 116.052C48.6517 116.302 48.6708 116.566 48.6324 116.824C48.6208 116.885 48.6019 116.944 48.5763 117.001C48.141 118.097 46.0491 117.944 45.0916 117.251C44.6733 116.949 44.9204 117.143 44.5834 116.893C43.6147 116.172 38.4285 110.238 38.1758 107.33Z" fill="black"/>
</g>
<path d="M19.8781 37.8352L22.5232 37.3164L35.6052 37.469L42.2515 38.9116L44.787 75.5816L15.4023 76.9382L19.8781 37.8352Z" fill="#E0E0E0"/>
<path d="M38.9078 73.8939L39.5339 57.2152L38.4922 37.876C42.6254 38.9274 48.2777 40.0954 51.4085 43.6214C53.4386 45.9102 55.4295 48.837 56.182 53.5504C57.0468 59.0989 58.1868 69.7104 58.9 75.6472" fill="#52B2E5"/>
<path d="M43.0636 71.1592L22.7484 74.419L22.0296 62.0236L20.9065 37.5186C15.0099 37.7571 8.29898 42.5705 6.28571 46.3213C4.88176 48.9235 3.70525 51.9475 3.33741 54.8743C2.63263 60.4228 1.43927 69.9302 0.726065 75.8699C0.510346 77.6751 0.704355 79.5051 1.29399 81.2269C1.88363 82.9487 2.85409 84.5191 4.13486 85.824C7.08316 88.8285 11.6993 89.8688 15.8494 89.0199L46.7813 80.4197L43.0636 71.1592Z" fill="#52B2E5"/>
<path d="M40.9188 70.937C40.9205 70.9134 40.9252 70.8901 40.9329 70.8677C40.9497 70.8177 40.9694 70.7511 40.9918 70.6679C41.0508 70.482 41.1294 70.224 41.2333 69.8939C41.4523 69.2114 41.764 68.2293 42.1515 67.0142L45.3385 57.1823L45.3806 57.2683L42.0869 55.9227L41.9578 55.87L42.0729 55.7951L42.8338 55.3013L45.3188 53.6978L45.2908 53.7755C44.0272 49.4421 42.9153 45.6192 42.115 42.8699C41.7247 41.5049 41.4102 40.4063 41.1884 39.6406C41.0873 39.2661 41.0059 38.9748 40.9469 38.7668C40.9226 38.6761 40.9029 38.6012 40.8879 38.542C40.8788 38.517 40.8731 38.4909 40.8711 38.4644C40.8711 38.4644 40.8711 38.4866 40.8992 38.5365L40.9722 38.7612C41.0368 38.9665 41.1266 39.255 41.2389 39.6268L42.2077 42.8421L45.4283 53.7366L45.4424 53.7866L45.3975 53.8171L42.9153 55.4234L42.1543 55.9144V55.7868L45.4452 57.1379L45.507 57.1628L45.4873 57.2239C44.19 61.1605 43.0585 64.5867 42.2498 67.042C41.8426 68.2571 41.5197 69.2308 41.2923 69.9078C41.18 70.2351 41.0901 70.4931 41.0283 70.6762C41.0003 70.7567 40.975 70.8205 40.9581 70.8732C40.9476 70.8959 40.9344 70.9173 40.9188 70.937Z" fill="#263238"/>
<g opacity="0.2">
<path opacity="0.2" d="M45.4117 53.7979C45.246 54.3995 44.8874 54.9319 44.3897 55.3153C44.0022 55.5345 44.224 55.8258 44.5441 56.131C44.9288 56.4972 45.5465 56.597 45.8301 57.0409C46.1137 57.4848 45.9537 57.9925 45.8077 58.4585C44.401 62.8803 42.6937 67.2031 40.6973 71.3975L45.4117 57.2018L42.1237 55.8619L45.4117 53.7979Z" fill="black"/>
</g>
<path d="M21.0577 71.2805C21.0438 71.2627 21.0325 71.2431 21.024 71.2223C21.0044 71.1779 20.9763 71.1224 20.9454 71.0503L20.6421 70.3733C20.3782 69.7741 20.0019 68.9113 19.519 67.8349L15.7311 59.0628L15.7087 59.0129L15.7564 58.9796L18.3537 57.143V57.2485L16.6325 55.9002L15.8687 55.3065L15.4896 55.0291L15.397 54.9542C15.3775 54.9405 15.3596 54.9246 15.3436 54.907C15.3255 54.8839 15.3122 54.8575 15.3043 54.8293C15.2836 54.7467 15.2733 54.662 15.2734 54.5769C15.2907 53.9561 15.3489 53.337 15.4475 52.7237C15.6188 51.5225 15.821 50.3684 16.0091 49.2698C16.4078 47.0754 16.8037 45.1084 17.1323 43.4439C17.4608 41.7794 17.7556 40.4561 17.955 39.535C18.0561 39.08 18.1375 38.7249 18.1937 38.4725L18.2582 38.1951C18.2631 38.1634 18.2725 38.1325 18.2863 38.1035C18.2848 38.1363 18.2801 38.1688 18.2723 38.2006C18.2723 38.27 18.2414 38.3615 18.2217 38.478C18.1712 38.7314 18.101 39.0865 18.0111 39.5433C17.8258 40.4755 17.5619 41.8127 17.2362 43.4606C16.9104 45.1084 16.5286 47.0865 16.1355 49.2864C15.9417 50.3823 15.7424 51.5363 15.5739 52.7348C15.4771 53.3409 15.4199 53.9525 15.4026 54.5658C15.4019 54.6369 15.4104 54.7077 15.4279 54.7766C15.4279 54.8099 15.5093 54.8599 15.5683 54.9098L15.9445 55.2039L16.7055 55.8003L18.4239 57.1458L18.4997 57.2069L18.4211 57.2623L15.821 59.0933L15.8434 59.0073L19.6088 67.7905C20.0665 68.8753 20.4315 69.7325 20.6843 70.3456C20.805 70.6369 20.9005 70.8644 20.965 71.0308L21.0324 71.2084C21.0429 71.2317 21.0514 71.2558 21.0577 71.2805Z" fill="#263238"/>
<path d="M45.6221 59.2448L25.1532 56.1249C24.7838 56.0686 24.4382 56.3188 24.3812 56.6837L19.9665 84.9573C19.9095 85.3222 20.1627 85.6637 20.5321 85.72L41.001 88.84C41.3704 88.8963 41.716 88.6461 41.773 88.2811L46.1877 60.0075C46.2447 59.6426 45.9915 59.3011 45.6221 59.2448Z" fill="#52B2E5"/>
<g opacity="0.2">
<path opacity="0.2" d="M45.6221 59.2448L25.1532 56.1249C24.7838 56.0686 24.4382 56.3188 24.3812 56.6837L19.9665 84.9573C19.9095 85.3222 20.1627 85.6637 20.5321 85.72L41.001 88.84C41.3704 88.8963 41.716 88.6461 41.773 88.2811L46.1877 60.0075C46.2447 59.6426 45.9915 59.3011 45.6221 59.2448Z" fill="black"/>
</g>
<path d="M44.9744 59.7898L25.6016 56.8369L21.2998 84.3865L40.6727 87.3394L44.9744 59.7898Z" fill="#EBEBEB"/>
<path d="M39.1553 59.3368C39.0178 58.9176 38.7652 58.5444 38.4256 58.2588C38.0859 57.9732 37.6727 57.7865 37.2318 57.7195L37.3947 56.5405C37.4609 56.1134 37.3529 55.6779 37.0944 55.3295C36.8359 54.981 36.4481 54.7481 36.016 54.6818C35.5834 54.6156 35.1418 54.722 34.7885 54.9774C34.4352 55.2328 34.199 55.6165 34.1319 56.0439L33.941 57.2645L33.5254 57.209C33.0895 57.1492 32.6452 57.2092 32.2415 57.3824C31.8378 57.5557 31.4903 57.8354 31.237 58.1911L30.9141 58.6349L39.3378 59.9221L39.1553 59.3368ZM35.6735 57.1841C35.4999 57.1579 35.3381 57.0814 35.2086 56.9643C35.079 56.8472 34.9875 56.6948 34.9457 56.5264C34.9039 56.3579 34.9136 56.181 34.9736 56.0179C35.0336 55.8549 35.1412 55.7132 35.2827 55.6106C35.4243 55.508 35.5935 55.4492 35.7689 55.4417C35.9443 55.4342 36.1181 55.4782 36.2681 55.5683C36.4182 55.6583 36.5378 55.7903 36.6119 55.9476C36.686 56.1048 36.7112 56.2803 36.6843 56.4517C36.6476 56.6808 36.5208 56.8863 36.3315 57.0235C36.1422 57.1607 35.9057 57.2184 35.6735 57.1841Z" fill="#263238"/>
<path d="M32.1676 61.8389C31.2823 61.7784 30.4012 61.6691 29.5282 61.5116C28.6489 61.4008 27.7763 61.2434 26.9141 61.04C27.7984 61.1006 28.6786 61.2099 29.5507 61.3673C30.4309 61.478 31.3045 61.6354 32.1676 61.8389Z" fill="#263238"/>
<path d="M29.3062 62.3002C28.8769 62.3095 28.4481 62.2685 28.0286 62.1782C27.6015 62.1374 27.1804 62.049 26.7734 61.9146C27.2026 61.9087 27.631 61.9496 28.051 62.0367C28.4781 62.0774 28.8992 62.1658 29.3062 62.3002Z" fill="#263238"/>
<path d="M41.2653 66.6232C41.2653 66.6621 37.98 66.1933 33.9451 65.5802C29.9101 64.9671 26.6445 64.4317 26.6445 64.3929C26.6445 64.354 29.927 64.8201 33.9647 65.4359C38.0025 66.0518 41.2709 66.5816 41.2653 66.6232Z" fill="#263238"/>
<path d="M41.0504 67.9977C41.0504 68.0366 37.768 67.5705 33.7302 66.9545C29.6925 66.3386 26.4297 65.8087 26.4297 65.7698C26.4297 65.731 29.7121 66.1971 33.7499 66.813C37.7877 67.429 41.0561 67.9589 41.0504 67.9977Z" fill="#263238"/>
<path d="M40.8356 69.3769C40.8356 69.4157 37.5504 68.9469 33.5154 68.3337C29.4804 67.7206 26.2148 67.1851 26.2148 67.1463C26.2148 67.1075 29.5001 67.5736 33.5379 68.1895C37.5756 68.8054 40.8412 69.3353 40.8356 69.3769Z" fill="#263238"/>
<path d="M40.6208 70.7526C40.6208 70.7915 37.3383 70.3254 33.3005 69.7095C29.2628 69.0936 26 68.5637 26 68.5221C26 68.4805 29.2824 68.9521 33.3202 69.568C37.358 70.1839 40.6376 70.7138 40.6208 70.7526Z" fill="#263238"/>
<path d="M40.4059 72.1298C40.4059 72.1714 37.1235 71.7025 33.0857 71.0865C29.0479 70.4705 25.7852 69.9405 25.7852 69.9017C25.7852 69.8628 29.0676 70.329 33.1054 70.945C37.1431 71.5609 40.4143 72.0909 40.4059 72.1298Z" fill="#263238"/>
<path d="M40.1911 73.5082C40.1911 73.5471 36.9058 73.081 32.8709 72.4652C28.8359 71.8494 25.5703 71.3196 25.5703 71.278C25.5703 71.2364 28.8528 71.7051 32.8905 72.321C36.9283 72.9368 40.1967 73.4694 40.1911 73.5082Z" fill="#263238"/>
<path d="M32.6884 73.6361C32.5944 73.6408 32.5003 73.6352 32.4076 73.6194C32.2194 73.6 31.9527 73.5667 31.6214 73.5223C30.9559 73.4335 30.0405 73.3031 29.0325 73.1505C28.0244 72.9979 27.1119 72.848 26.452 72.7343C26.1207 72.6788 25.8567 72.6288 25.6714 72.5928C25.5749 72.5815 25.4805 72.5572 25.3906 72.5206C25.4846 72.5142 25.5789 72.5198 25.6714 72.5373C25.8595 72.5567 26.1263 72.59 26.4576 72.6344C27.1231 72.7204 28.0385 72.8536 29.0465 73.0062C30.0545 73.1588 30.9671 73.3086 31.627 73.4224C31.9583 73.4779 32.2222 73.5279 32.4076 73.5639C32.504 73.5752 32.5985 73.5995 32.6884 73.6361Z" fill="#263238"/>
<path d="M42.4355 63.2798C42.0385 63.2917 41.6415 63.2553 41.2534 63.1716C40.8579 63.1361 40.4684 63.0522 40.0938 62.9219C40.8862 62.9464 41.6726 63.0666 42.4355 63.2798Z" fill="#263238"/>
<path d="M28.894 76.1296C28.2528 76.1042 27.6145 76.0309 26.9846 75.9105C26.3472 75.838 25.7164 75.7174 25.0977 75.5498C25.7388 75.5751 26.3771 75.6484 27.007 75.769C27.6443 75.8423 28.275 75.9629 28.894 76.1296Z" fill="#263238"/>
<path d="M28.8257 77.4006C28.1733 77.3733 27.5238 77.2981 26.8826 77.1759C26.2347 77.1033 25.5935 76.9808 24.9648 76.8096C25.6163 76.8369 26.2649 76.912 26.9051 77.0343C27.554 77.1067 28.1962 77.2292 28.8257 77.4006Z" fill="#263238"/>
<path d="M39.9351 77.6237C39.3131 77.6259 38.6945 77.5323 38.1016 77.3464C38.413 77.3221 38.7264 77.3445 39.031 77.413C39.3419 77.4344 39.6473 77.5056 39.9351 77.6237Z" fill="#263238"/>
<path d="M39.8218 78.7563C39.1998 78.7584 38.5812 78.6649 37.9883 78.479C38.6103 78.4769 39.2289 78.5705 39.8218 78.7563Z" fill="#263238"/>
<path d="M26.8499 78.4433C26.5489 78.4678 26.2458 78.4463 25.9514 78.3795C25.6508 78.3574 25.3559 78.2871 25.0781 78.1715C25.3782 78.1452 25.6807 78.1667 25.9738 78.2353C26.2755 78.2566 26.5714 78.3269 26.8499 78.4433Z" fill="#263238"/>
<path d="M39.6825 80.0813C39.4573 80.1177 39.2268 80.1073 39.0058 80.0507C38.7779 80.0395 38.555 79.9808 38.3516 79.8787C38.5765 79.8388 38.8075 79.8483 39.0283 79.9064C39.2565 79.9178 39.4796 79.9774 39.6825 80.0813Z" fill="#263238"/>
<path d="M24.4961 81.1206C24.6063 81.111 24.7172 81.111 24.8274 81.1206L25.7597 81.1484L29.0898 81.2787H29.1656L29.1488 81.3509C29.0654 81.7075 28.8589 82.0242 28.5648 82.2468C28.4089 82.3698 28.227 82.4565 28.0325 82.5002C27.8379 82.5439 27.636 82.5436 27.4416 82.4992C27.2341 82.4517 27.0415 82.3548 26.8805 82.2171C26.7195 82.0793 26.595 81.9048 26.5178 81.7087C26.447 81.498 26.4418 81.2712 26.5029 81.0576C26.5639 80.844 26.6885 80.6533 26.8604 80.5104C26.9865 80.3977 27.1389 80.3177 27.304 80.2774C27.3454 80.2669 27.3877 80.2603 27.4304 80.2579C27.4761 80.2524 27.5223 80.2524 27.568 80.2579C27.5986 80.2629 27.6277 80.275 27.6526 80.2934C27.6775 80.3117 27.6976 80.3357 27.7112 80.3634C27.7297 80.411 27.7355 80.4626 27.728 80.5131C27.691 80.8237 27.5866 81.1227 27.4219 81.3897C27.2617 81.6453 27.0506 81.8662 26.8014 82.0388C26.5584 82.2188 26.2628 82.3162 25.959 82.3162C25.8126 82.306 25.672 82.2557 25.553 82.1709C25.4339 82.0862 25.3412 81.9703 25.2851 81.8363C25.1777 81.5922 25.1578 81.3191 25.229 81.0624C25.3952 80.6346 25.6652 80.2536 26.0152 79.9528L26.091 79.8779V79.9833C26.1359 80.366 26.0614 80.7531 25.8776 81.0929C25.7409 81.3497 25.5493 81.574 25.316 81.7503C25.1707 81.8615 25.0087 81.9495 24.8358 82.011C24.7765 82.0344 24.7141 82.0493 24.6505 82.0554C24.8787 81.9732 25.0921 81.8552 25.2823 81.7059C25.499 81.5273 25.6758 81.3063 25.8018 81.0568C25.9707 80.7283 26.0344 80.3568 25.9843 79.9917L26.0741 80.0194C25.742 80.3137 25.4868 80.683 25.33 81.0957C25.2688 81.3255 25.2886 81.5691 25.3862 81.7864C25.4329 81.898 25.5102 81.9945 25.6094 82.065C25.7087 82.1356 25.8258 82.1774 25.9478 82.1858C26.216 82.183 26.4761 82.0944 26.6891 81.9334C26.9265 81.7693 27.126 81.5574 27.2746 81.3117C27.4232 81.0659 27.5174 80.7919 27.5511 80.5076C27.5574 80.483 27.5574 80.4573 27.5511 80.4327C27.5511 80.4188 27.5511 80.4133 27.5118 80.4077C27.4438 80.404 27.3756 80.4105 27.3096 80.4272C27.168 80.4627 27.0371 80.5311 26.9277 80.6269C26.7792 80.7521 26.6715 80.918 26.618 81.1035C26.5646 81.2891 26.5678 81.4861 26.6273 81.6698C26.6949 81.8389 26.8018 81.9899 26.9393 82.1107C27.0769 82.2315 27.2412 82.3186 27.4192 82.365C27.5971 82.4114 27.7835 82.4159 27.9635 82.378C28.1435 82.3401 28.3119 82.261 28.4552 82.147C28.7268 81.946 28.9186 81.6575 28.9972 81.3314L29.0561 81.4063L25.754 81.2149L24.8218 81.1539C24.7126 81.1495 24.6039 81.1384 24.4961 81.1206Z" fill="#263238"/>
<path d="M38.3744 83.1871C38.3296 83.2501 38.2757 83.3061 38.2143 83.3535C38.1423 83.4143 38.062 83.4648 37.9756 83.5033C37.8542 83.5564 37.7172 83.5633 37.591 83.5227C37.5113 83.4986 37.4421 83.4488 37.3944 83.3813C37.347 83.3081 37.3199 83.2239 37.3158 83.1371C37.3181 82.9599 37.3312 82.783 37.3551 82.6073C37.3916 82.23 37.4337 81.8166 37.4786 81.37L37.5994 81.4172L36.5268 82.8514L36.26 83.2065L36.0859 83.4395L36.128 83.1621C36.2432 82.4214 36.3471 81.7306 36.4397 81.1231L36.5436 81.1786C36.1056 81.5433 35.7176 81.963 35.3896 82.427C35.1537 82.7626 35.0414 82.9818 35.0273 82.9651C35.0411 82.9096 35.0628 82.8564 35.0919 82.807C35.164 82.6634 35.2437 82.5235 35.3306 82.3881C35.6387 81.9018 36.0171 81.4625 36.4538 81.0843L36.5801 80.9761L36.5548 81.1425C36.4706 81.7473 36.3695 82.4408 36.274 83.1843L36.1421 83.1288L36.4229 82.7737C36.8047 82.2688 37.167 81.7861 37.5039 81.345L37.6527 81.1453L37.6246 81.3922C37.5713 81.8388 37.5236 82.2522 37.4786 82.6267C37.4524 82.7967 37.4355 82.9681 37.4281 83.1399C37.4235 83.2066 37.4407 83.273 37.4771 83.3294C37.5135 83.3858 37.5671 83.4293 37.6303 83.4534C37.7273 83.4793 37.8293 83.4812 37.9272 83.459C38.0251 83.4367 38.116 83.391 38.1918 83.3258C38.2487 83.2747 38.3098 83.2283 38.3744 83.1871Z" fill="#263238"/>
<path d="M38.8696 82.4339C37.9531 82.5014 37.0336 82.521 36.115 82.4924C35.1969 82.5125 34.2784 82.4846 33.3633 82.4088C34.2788 82.3394 35.1973 82.3189 36.115 82.3474C37.0341 82.3273 37.9536 82.3561 38.8696 82.4339Z" fill="#263238"/>
<path d="M39.7645 83.2959C39.0382 83.4453 38.3028 83.5481 37.5631 83.6038C36.829 83.7059 36.089 83.7615 35.3477 83.7703C36.0734 83.6169 36.8089 83.5131 37.5491 83.4596C38.283 83.3557 39.0231 83.301 39.7645 83.2959Z" fill="#263238"/>
<g opacity="0.2">
<path opacity="0.2" d="M15.3451 54.7319C15.3114 55.5642 15.5388 56.4131 16.2408 56.882C15.3619 57.3037 14.893 58.3135 14.8649 59.2789C14.8368 60.2444 15.1766 61.182 15.5444 62.0781C16.6816 64.833 19.1077 68.7113 20.9581 71.0583C20.9581 71.0583 20.0202 68.5615 19.7507 67.9762C18.532 65.3434 17.4566 62.7051 16.2352 60.064C16.1004 59.7866 15.8589 58.9765 15.8589 58.9765C15.9918 58.9118 16.1148 58.8287 16.2239 58.7296C16.9091 58.1748 18.3944 57.201 18.3944 57.201C18.3944 57.201 15.3451 54.8152 15.3451 54.7319Z" fill="black"/>
</g>
<path d="M15.3065 60.3916C15.3458 60.3916 15.2756 63.5958 15.1464 67.5435C15.0173 71.4913 14.8825 74.6927 14.8432 74.6899C14.8039 74.6872 14.8713 71.4885 15.0004 67.538C15.1296 63.5875 15.2644 60.3888 15.3065 60.3916Z" fill="#263238"/>
<path d="M20.1402 51.9775H19.8594C19.8594 51.8721 20.2665 41.3772 20.5838 37.1992C20.5942 36.906 20.665 36.6179 20.792 36.3527C20.919 36.0874 21.0994 35.8506 21.3223 35.6567C22.1984 34.916 23.5096 35.0131 23.5686 35.0159L23.5461 35.2933C23.5321 35.2933 22.2938 35.2045 21.5076 35.8675C21.3135 36.0386 21.1564 36.2468 21.0459 36.4794C20.9354 36.7121 20.8737 36.9645 20.8646 37.2214C20.5557 41.3689 20.1542 51.861 20.1402 51.9775Z" fill="#263238"/>
<path d="M22.7704 69.5327H22.2734V68.9778H22.7704C23.2917 68.9778 23.7917 68.7732 24.1603 68.409C24.5289 68.0448 24.736 67.5508 24.736 67.0358V61.1597H25.2975V67.0358C25.2975 67.698 25.0313 68.3331 24.5574 68.8014C24.0834 69.2696 23.4407 69.5327 22.7704 69.5327Z" fill="#455A64"/>
<path d="M22.974 69.3213C22.9624 69.4387 22.9157 69.55 22.84 69.6412C22.7643 69.7324 22.6629 69.7994 22.5486 69.8336C22.4344 69.8679 22.3124 69.868 22.1982 69.8338C22.0839 69.7995 21.9825 69.7326 21.9067 69.6415C21.8309 69.5503 21.7842 69.439 21.7725 69.3216C21.7607 69.2042 21.7845 69.0861 21.8407 68.982C21.8969 68.878 21.9831 68.7927 22.0884 68.7371C22.1937 68.6814 22.3133 68.6578 22.4321 68.6693C22.5912 68.6855 22.7374 68.763 22.8389 68.8851C22.9404 69.0072 22.9889 69.164 22.974 69.3213Z" fill="#263238"/>
<path d="M17.9147 69.519H17.4177C16.7475 69.519 16.1047 69.256 15.6308 68.7877C15.1569 68.3195 14.8906 67.6844 14.8906 67.0223L14.9131 61.1465H15.4747L15.4522 67.0223C15.4522 67.5373 15.6593 68.0312 16.0279 68.3954C16.3965 68.7596 16.8964 68.9642 17.4177 68.9642H17.9147V69.519Z" fill="#455A64"/>
<path d="M17.2177 69.3066C17.2293 69.4234 17.2757 69.5341 17.351 69.6249C17.4262 69.7156 17.527 69.7823 17.6405 69.8165C17.7541 69.8507 17.8754 69.8509 17.9891 69.817C18.1028 69.7832 18.2038 69.7168 18.2793 69.6263C18.3548 69.5358 18.4016 69.4252 18.4136 69.3085C18.4255 69.1918 18.4023 69.0742 18.3467 68.9705C18.2911 68.8669 18.2057 68.7818 18.1012 68.7261C17.9967 68.6703 17.8779 68.6464 17.7597 68.6574C17.6809 68.6647 17.6043 68.6873 17.5344 68.7239C17.4644 68.7605 17.4025 68.8104 17.3522 68.8707C17.3018 68.9311 17.264 69.0006 17.241 69.0754C17.2179 69.1502 17.21 69.2288 17.2177 69.3066Z" fill="#263238"/>
<path d="M14.7469 61.8223L14.6767 57.6332C14.6233 54.44 16.9848 51.8073 19.9415 51.7546C20.6616 51.7483 21.375 51.8917 22.0354 52.1756C22.6957 52.4595 23.2882 52.8775 23.7743 53.4025C24.8074 54.5068 25.387 55.9519 25.4 57.4556L25.4702 61.6475L24.6279 61.6614L24.5577 57.4695C24.5475 56.1713 24.0467 54.9236 23.1537 53.9712C22.7492 53.5295 22.2545 53.1776 21.7023 52.9385C21.15 52.6994 20.5528 52.5786 19.9499 52.5841C17.4565 52.6257 15.4573 54.8812 15.5134 57.6165L15.5836 61.8056L14.7469 61.8223Z" fill="#263238"/>
<path d="M38.7315 52.1338C38.7315 52.0228 37.4427 41.1174 37.0721 37.6219L37.0468 37.3667C36.9317 36.1793 36.7969 34.8366 35.4688 34.4815L35.5418 34.2041C37.058 34.6091 37.2068 36.1183 37.3276 37.3306L37.3529 37.5831C37.7207 41.0786 38.9983 51.984 39.0095 52.0949L38.7315 52.1338Z" fill="#263238"/>
<path d="M41.0046 52.3675C42.1812 51.2051 42.1812 49.3203 41.0046 48.1579C39.828 46.9955 37.9203 46.9955 36.7437 48.1579C35.5671 49.3203 35.5671 51.205 36.7437 52.3675C37.9203 53.5299 39.828 53.5299 41.0046 52.3675Z" fill="#263238"/>
<path d="M40.3248 50.2631C40.3248 50.548 40.2392 50.8264 40.079 51.0633C39.9187 51.3001 39.6909 51.4847 39.4245 51.5935C39.158 51.7024 38.8649 51.7308 38.5821 51.675C38.2994 51.6192 38.0397 51.4818 37.836 51.2802C37.6323 51.0785 37.4937 50.8217 37.4378 50.5423C37.3819 50.2628 37.4112 49.9732 37.5219 49.7101C37.6326 49.4471 37.8199 49.2224 38.0599 49.0645C38.2999 48.9067 38.5819 48.8227 38.8703 48.8232C39.0615 48.8232 39.2509 48.8605 39.4275 48.9329C39.6042 49.0053 39.7646 49.1114 39.8997 49.2451C40.0348 49.3789 40.1419 49.5376 40.2148 49.7123C40.2878 49.8869 40.3251 50.0741 40.3248 50.2631Z" fill="#455A64"/>
<path d="M21.0596 71.2812L17.2773 80.4721L47.4483 88.7364C48.8275 89.1161 50.2749 89.1886 51.6859 88.9487C53.097 88.7089 54.4365 88.1626 55.608 87.3493C58.7641 85.1494 59.5391 81.3016 59.1544 77.4927L58.6097 73.4423L21.0596 71.2812Z" fill="#52B2E5"/>
<path d="M53.0217 81.2568C52.9908 81.2568 52.9263 80.6299 52.6146 79.6617C52.5346 79.3972 52.4409 79.137 52.3338 78.8821C52.2271 78.6047 52.0783 78.3273 51.9294 78.0165C51.5832 77.3743 51.1761 76.7658 50.7136 76.1994C50.2428 75.6402 49.7202 75.1256 49.1524 74.6625C48.8716 74.46 48.6302 74.2575 48.3746 74.1077C48.1437 73.9504 47.9047 73.805 47.6586 73.6721C46.7601 73.1811 46.1452 72.9924 46.1564 72.9619C46.3035 72.9917 46.4474 73.0353 46.586 73.0923C46.7536 73.146 46.9178 73.2099 47.0774 73.2837C47.2655 73.3697 47.4845 73.4557 47.7092 73.5833C47.9614 73.7109 48.2061 73.8527 48.442 74.0078C48.7032 74.1631 48.9615 74.3657 49.2367 74.5626C49.8173 75.026 50.3505 75.5445 50.8287 76.1106C51.2961 76.6849 51.7044 77.3039 52.0474 77.9583C52.1962 78.2662 52.3422 78.5547 52.4461 78.8405C52.555 79.0994 52.6488 79.3643 52.7269 79.6339C52.7975 79.8541 52.8547 80.0783 52.8982 80.3053C52.9428 80.4774 52.9737 80.6527 52.9908 80.8296C53.0143 80.9708 53.0246 81.1138 53.0217 81.2568Z" fill="#263238"/>
<g opacity="0.2">
<path opacity="0.2" d="M16.6036 75.1918C14.3011 75.3805 12.5237 75.5886 10.1454 75.8771C8.66002 76.0574 7.11849 75.9548 6.63272 74.5593C6.14695 73.1639 6.45583 71.5659 7.25327 70.3147C8.05071 69.0635 9.30304 66.1533 16.0083 68.3727L16.6036 75.1918Z" fill="black"/>
</g>
<path d="M19.707 74.7898L19.7239 74.7287L19.7885 74.5456L20.0412 73.8465L21.0099 71.2636L21.0239 71.2275H21.0604L31.3233 72.1458L41.2521 73.078L44.2593 73.3749L45.0764 73.4636L45.287 73.4914C45.312 73.4921 45.3366 73.4968 45.36 73.5053H45.287H45.0736L44.2537 73.4442L41.2408 73.189L31.3093 72.3012L21.052 71.3385L21.1026 71.3052L20.0917 73.8742L19.8109 74.5623L19.7351 74.7398C19.7211 74.7731 19.7098 74.7926 19.707 74.7898Z" fill="#263238"/>
<g opacity="0.2">
<path opacity="0.2" d="M32.1211 84.2697C36.406 85.4044 39.0117 84.7469 42.9034 82.644C43.7007 82.1822 44.4661 81.6688 45.1947 81.1071C45.7496 80.6588 46.2432 80.1413 46.6632 79.5674C41.6511 81.4622 37.487 82.8965 32.3205 84.3224" fill="black"/>
</g>
<path d="M19.723 74.691L20.703 71.9862L18.4258 68.4685C18.2286 68.1636 17.9706 67.9018 17.6673 67.699C17.3641 67.4963 17.0221 67.3569 16.6624 67.2894L8.28363 65.7275C8.17942 66.0375 8.19389 66.3745 8.3243 66.6746C8.4547 66.9747 8.69199 67.2172 8.99122 67.356C10.0891 67.9747 15.0282 69.1093 15.0282 69.1093L7.4216 68.9817C7.4216 68.9817 7.18573 70.0664 8.04776 70.4548C8.90979 70.8432 14.329 71.0402 14.329 71.0402L7.39071 72.0056C7.39071 72.0056 7.3514 73.0931 8.93787 73.1153C10.5003 73.0969 12.0607 72.9996 13.613 72.824C13.6773 72.8151 13.7425 72.8313 13.7949 72.8691C13.8473 72.9069 13.8828 72.9633 13.8938 73.0265C13.9033 73.0876 13.8893 73.15 13.8544 73.2014C13.8196 73.2528 13.7665 73.2894 13.7057 73.3039L9.0923 74.3803C8.95937 74.4099 8.84008 74.4821 8.75298 74.5856C8.66589 74.6892 8.61588 74.8182 8.61076 74.9528C8.60563 75.0873 8.64567 75.2197 8.72464 75.3294C8.80361 75.4391 8.91708 75.52 9.04738 75.5594C9.13097 75.5792 9.21738 75.5849 9.30289 75.576C10.0891 75.4983 14.7839 74.9102 14.7839 74.9102L15.0282 75.4512L19.723 74.6966" fill="#B78876"/>
<path d="M16.2755 73.8557C16.2117 73.7063 16.1245 73.5677 16.0171 73.4451C15.8931 73.3198 15.7412 73.2248 15.5735 73.1676C15.3664 73.105 15.1492 73.0815 14.9333 73.0982C14.4672 73.1315 14.046 73.2647 13.7315 73.3035C13.5617 73.3443 13.3846 73.3443 13.2148 73.3035C13.3782 73.2579 13.5442 73.2217 13.7118 73.1953C14.1086 73.0794 14.5143 72.9959 14.9249 72.9456C15.1607 72.9274 15.3978 72.9576 15.6212 73.0344C15.8031 73.104 15.965 73.2164 16.0929 73.3618C16.1602 73.4244 16.2118 73.5016 16.2435 73.5874C16.2752 73.6731 16.2861 73.765 16.2755 73.8557Z" fill="#AA6550"/>
<path d="M17.0346 71.7942C17.0205 71.7942 17.0121 71.7193 16.9504 71.6C16.8592 71.4345 16.7204 71.2994 16.5516 71.2116C16.1276 70.9675 15.4116 71.048 14.6591 71.0979C13.9066 71.1478 13.2158 71.2588 12.7188 71.3226C12.4521 71.3725 12.1816 71.3994 11.9102 71.403C12.1674 71.3171 12.4326 71.2567 12.702 71.2227C13.3445 71.0981 13.9931 71.0055 14.6451 70.9453C15.0054 70.913 15.3671 70.8991 15.7289 70.9037C16.0337 70.8964 16.3351 70.9692 16.6022 71.1145C16.7829 71.2178 16.9233 71.378 17.0009 71.5695C17.036 71.639 17.0477 71.7177 17.0346 71.7942Z" fill="#AA6550"/>
<path d="M17.6136 70.5957C17.6071 70.3756 17.5463 70.1605 17.4367 69.9688C17.3115 69.7681 17.1378 69.6013 16.9312 69.4834C16.6694 69.3481 16.3832 69.2651 16.0889 69.2393C15.4599 69.181 14.8702 69.2393 14.4406 69.206C14.2072 69.2057 13.9771 69.1506 13.7695 69.0451C13.7695 69.0229 14.0279 69.0978 14.4462 69.1061C14.8646 69.1145 15.4459 69.0368 16.1057 69.1061C16.4196 69.1318 16.7238 69.2266 16.9958 69.3835C17.2193 69.518 17.4017 69.7097 17.5237 69.9383C17.6084 70.0893 17.652 70.2594 17.6501 70.432C17.6444 70.5347 17.6136 70.5957 17.6136 70.5957Z" fill="#AA6550"/>
<path d="M44.8125 70.5867C44.8131 70.4359 44.8272 70.2855 44.8546 70.1372C44.8911 69.8598 44.9613 69.4326 45.0596 68.9221C45.2533 67.9012 45.5959 66.5058 45.9581 64.9661C46.2784 63.6548 46.5231 62.3265 46.691 60.9878C46.7247 60.7298 46.7387 60.4968 46.7584 60.2915C46.778 60.0862 46.7893 59.9114 46.7949 59.7644C46.7935 59.6137 46.8067 59.4632 46.8342 59.3149C46.8523 59.465 46.858 59.6162 46.851 59.7671C46.851 59.9114 46.851 60.0917 46.851 60.297C46.851 60.5023 46.8342 60.7381 46.8033 60.9961C46.6668 62.3447 46.436 63.6823 46.1126 64.9994C45.7475 66.5418 45.3909 67.929 45.1719 68.9443C45.0624 69.4492 44.9754 69.8626 44.922 70.1456C44.8977 70.2953 44.8611 70.4428 44.8125 70.5867Z" fill="#263238"/>
<path d="M47.7253 88.7859C47.6689 88.7849 47.6131 88.7755 47.5596 88.7581L47.0935 88.6555L45.3863 88.2394C43.9458 87.8815 41.9606 87.3628 39.7705 86.7635C37.5803 86.1643 35.6176 85.5901 34.1996 85.1601L32.5148 84.6441L32.06 84.4943C32.0158 84.4795 31.9734 84.46 31.9336 84.436C31.9892 84.4397 32.044 84.4509 32.0964 84.4693L32.5598 84.5914L34.2445 85.0658L39.8266 86.6276L45.4115 88.1423L47.0963 88.6L47.5568 88.7304C47.6148 88.743 47.6712 88.7616 47.7253 88.7859Z" fill="#263238"/>
<path d="M18.8203 8.31908C19.4381 6.43536 22.6026 4.73475 24.3378 3.74711C26.9352 2.27398 29.3415 2.56805 30.8241 3.88028C33.5028 1.66087 37.0324 -0.475304 40.4159 0.398586C43.7994 1.27248 46.5484 4.69591 45.9306 8.09992C45.5684 10.1057 44.1616 11.9034 44.2459 13.9259C44.302 15.313 45.0461 16.5669 45.6498 17.8265C46.2535 19.086 46.6972 20.5508 46.1693 21.838C45.6779 23.0337 44.4509 23.78 43.791 24.8897C43.2519 25.7997 43.1283 26.8816 42.783 27.8776C41.5082 31.5673 37.0998 33.6369 33.208 32.9878C29.3163 32.3386 26.0731 29.445 24.2227 25.9939C22.3723 22.5427 21.777 18.5811 21.5636 14.6888" fill="#263238"/>
<path d="M21.6875 10.9193L22.4653 41.6855C22.7461 45.2116 26.0341 47.7888 29.8529 47.4615C33.7081 47.1341 36.6536 43.9798 36.4318 40.4122C36.1987 36.6697 36.0247 32.722 36.0247 32.722C36.0247 32.722 40.8514 31.6123 41.4523 25.2538C41.7584 21.9968 41.2249 16.6537 40.6661 12.4202C40.5566 11.5762 40.2753 10.7628 39.8393 10.0289C39.4033 9.29508 38.8215 8.65598 38.129 8.15008C37.4365 7.64417 36.6475 7.28191 35.8096 7.08511C34.9717 6.8883 34.1021 6.86101 33.2533 7.00488" fill="#B78876"/>
<path d="M39.2346 16.9664C39.251 17.1763 39.1835 17.3843 39.0464 17.5457C38.9094 17.707 38.7139 17.8088 38.5017 17.8292C38.3984 17.8444 38.2931 17.839 38.192 17.8133C38.0909 17.7875 37.996 17.742 37.913 17.6794C37.83 17.6168 37.7606 17.5384 37.7088 17.4488C37.6571 17.3592 37.624 17.2602 37.6116 17.1578C37.5959 16.9477 37.6636 16.7398 37.8004 16.5781C37.9372 16.4165 38.1324 16.314 38.3445 16.2922C38.4479 16.2774 38.5533 16.2832 38.6544 16.3092C38.7555 16.3353 38.8504 16.3811 38.9333 16.4439C39.0163 16.5067 39.0856 16.5853 39.1374 16.6751C39.1891 16.7648 39.2222 16.8638 39.2346 16.9664Z" fill="#263238"/>
<path d="M40.0438 16.1445C39.9483 16.2555 39.2997 15.842 38.4208 15.9003C37.542 15.9586 36.927 16.4331 36.8259 16.3332C36.7754 16.2888 36.8653 16.0945 37.132 15.8725C37.4959 15.5873 37.9403 15.4206 38.404 15.3953C38.8602 15.3656 39.3143 15.4792 39.7012 15.7199C39.9848 15.9114 40.0887 16.0917 40.0438 16.1445Z" fill="#263238"/>
<path d="M30.8088 17.8364C30.826 18.0468 30.7588 18.2555 30.6217 18.4174C30.4846 18.5794 30.2886 18.6816 30.0759 18.702C29.9725 18.7168 29.8671 18.711 29.766 18.6849C29.6649 18.6588 29.57 18.6131 29.4871 18.5502C29.4041 18.4874 29.3348 18.4088 29.283 18.3191C29.2313 18.2294 29.1982 18.1304 29.1858 18.0278C29.1701 17.8177 29.2378 17.6098 29.3746 17.4482C29.5114 17.2866 29.7066 17.1841 29.9187 17.1623C30.0221 17.1475 30.1275 17.1533 30.2287 17.1794C30.3298 17.2054 30.4246 17.2512 30.5076 17.314C30.5905 17.3768 30.6599 17.4554 30.7116 17.5451C30.7634 17.6349 30.7964 17.7339 30.8088 17.8364Z" fill="#263238"/>
<path d="M31.4149 16.8583C31.3194 16.9693 30.6708 16.5559 29.7919 16.6141C28.913 16.6724 28.2981 17.1469 28.197 17.047C28.1465 17.0026 28.2363 16.8084 28.5059 16.5864C28.869 16.3017 29.3123 16.135 29.7751 16.1091C30.2313 16.0794 30.6854 16.1931 31.0723 16.4338C31.3699 16.6225 31.4598 16.8056 31.4149 16.8583Z" fill="#263238"/>
<path d="M35.0222 23.0927C35.0222 23.0456 35.5529 22.918 36.4262 22.7487C36.648 22.7127 36.8586 22.6544 36.8867 22.4991C36.8906 22.2691 36.823 22.0435 36.693 21.8527C36.4487 21.3284 36.1903 20.7819 35.9208 20.2076C34.8425 17.8607 34.0451 15.9271 34.1406 15.8854C34.236 15.8438 35.1879 17.7109 36.269 20.0467C36.5273 20.6237 36.7772 21.1758 37.013 21.7112C37.1735 21.969 37.2352 22.2751 37.1871 22.574C37.1597 22.6542 37.1141 22.7271 37.0538 22.7872C36.9934 22.8474 36.9199 22.893 36.839 22.9207C36.7176 22.9626 36.591 22.9878 36.4627 22.9956C35.5838 23.1038 35.0222 23.1427 35.0222 23.0927Z" fill="#263238"/>
<path d="M36.028 32.7111C33.032 32.9478 30.0284 32.3581 27.3516 31.0078C27.3516 31.0078 29.7635 35.244 36.0982 34.248L36.028 32.7111Z" fill="#AA6550"/>
<path d="M31.4211 13.4401C31.3481 13.6815 30.4636 13.626 29.4415 13.8147C28.4195 14.0034 27.6024 14.3336 27.4507 14.1311C27.3833 14.0339 27.5153 13.8008 27.8354 13.5511C28.2631 13.2383 28.7596 13.0301 29.2843 12.9434C29.8085 12.8479 30.3481 12.8755 30.8595 13.0239C31.247 13.1515 31.4492 13.3263 31.4211 13.4401Z" fill="#263238"/>
<path d="M39.5553 13.6516C39.4149 13.8597 38.7944 13.6932 38.0671 13.7293C37.3399 13.7654 36.7305 13.9485 36.5761 13.7515C36.5059 13.6544 36.5761 13.4518 36.8569 13.2465C37.2041 12.9998 37.6178 12.8607 38.0453 12.8468C38.4728 12.833 38.8948 12.9451 39.2577 13.1689C39.5132 13.3547 39.6171 13.5517 39.5553 13.6516Z" fill="#263238"/>
<path d="M33.661 24.7263C34.3489 24.7263 34.6915 24.926 35.2755 25.2811C35.4515 25.3727 35.5961 25.5136 35.6911 25.6862C35.736 25.8102 35.7516 25.9427 35.7365 26.0735C35.7214 26.2043 35.6761 26.33 35.6041 26.4408C35.4605 26.6928 35.2471 26.899 34.9889 27.0351C34.7307 27.1713 34.4385 27.2317 34.1468 27.2093C33.8559 27.1791 33.5819 27.06 33.3629 26.8685C33.144 26.677 32.991 26.4227 32.9253 26.1412C32.8709 25.8573 32.9137 25.5636 33.0469 25.3064C33.1801 25.0493 33.3962 24.8432 33.661 24.7207" fill="#AA6550"/>
<path d="M35.9979 26.178C35.9979 26.2446 35.7788 26.3445 35.3942 26.3223C34.9077 26.2777 34.4376 26.126 34.0183 25.8784C33.5954 25.6458 33.2209 25.3361 32.9148 24.9656C32.6873 24.6881 32.6172 24.444 32.6761 24.4107C32.7912 24.3358 33.3697 24.9351 34.2794 25.4289C34.6557 25.6435 35.0515 25.8227 35.4616 25.9644C35.776 26.0698 35.9894 26.1059 35.9979 26.178Z" fill="#263238"/>
<path d="M31.6588 20.7622C31.7876 20.7622 31.8919 20.6591 31.8919 20.532C31.8919 20.4048 31.7876 20.3018 31.6588 20.3018C31.5301 20.3018 31.4258 20.4048 31.4258 20.532C31.4258 20.6591 31.5301 20.7622 31.6588 20.7622Z" fill="#AA6550"/>
<path d="M38.4896 19.4015C38.4896 19.447 38.4759 19.4915 38.4503 19.5293C38.4247 19.5672 38.3883 19.5967 38.3457 19.6141C38.3031 19.6315 38.2562 19.636 38.211 19.6272C38.1658 19.6183 38.1243 19.5964 38.0917 19.5642C38.0591 19.532 38.0369 19.491 38.0279 19.4464C38.0189 19.4017 38.0235 19.3555 38.0412 19.3134C38.0588 19.2714 38.0887 19.2354 38.127 19.2102C38.1653 19.1849 38.2104 19.1714 38.2565 19.1714C38.3183 19.1714 38.3776 19.1956 38.4213 19.2388C38.465 19.2819 38.4896 19.3405 38.4896 19.4015Z" fill="#AA6550"/>
<path d="M39.7789 20.0025C39.7825 20.035 39.7792 20.0679 39.769 20.0991C39.7589 20.1302 39.7422 20.1589 39.7201 20.1833C39.698 20.2077 39.6709 20.2272 39.6406 20.2405C39.6104 20.2538 39.5776 20.2607 39.5445 20.2607C39.5113 20.2607 39.4786 20.2538 39.4483 20.2405C39.418 20.2272 39.391 20.2077 39.3688 20.1833C39.3467 20.1589 39.33 20.1302 39.3199 20.0991C39.3098 20.0679 39.3064 20.035 39.31 20.0025C39.3163 19.9454 39.3438 19.8927 39.387 19.8544C39.4303 19.8161 39.4864 19.7949 39.5445 19.7949C39.6026 19.7949 39.6586 19.8161 39.7019 19.8544C39.7452 19.8927 39.7726 19.9454 39.7789 20.0025Z" fill="#AA6550"/>
<path d="M40.1692 19.0388C40.1692 19.0844 40.1556 19.1289 40.1299 19.1667C40.1043 19.2046 40.0679 19.2341 40.0254 19.2515C39.9828 19.2689 39.9359 19.2735 39.8907 19.2646C39.8455 19.2557 39.804 19.2338 39.7714 19.2016C39.7388 19.1694 39.7166 19.1284 39.7076 19.0837C39.6986 19.0391 39.7032 18.9928 39.7209 18.9507C39.7385 18.9086 39.7684 18.8727 39.8067 18.8474C39.845 18.8221 39.8901 18.8086 39.9362 18.8086C39.998 18.8086 40.0573 18.8328 40.101 18.876C40.1447 18.9192 40.1692 18.9778 40.1692 19.0388Z" fill="#AA6550"/>
<path d="M30.8233 21.5492C30.8238 21.5955 30.8105 21.6408 30.7849 21.6795C30.7593 21.7182 30.7227 21.7485 30.6796 21.7666C30.6366 21.7847 30.5891 21.7897 30.5431 21.781C30.4972 21.7723 30.4549 21.7503 30.4216 21.7179C30.3884 21.6854 30.3656 21.6438 30.3563 21.5985C30.347 21.5532 30.3515 21.5062 30.3692 21.4634C30.387 21.4207 30.4172 21.3841 30.4561 21.3583C30.4949 21.3326 30.5406 21.3189 30.5874 21.3188C30.6495 21.3188 30.709 21.343 30.7532 21.3862C30.7973 21.4293 30.8225 21.4879 30.8233 21.5492Z" fill="#AA6550"/>
<path d="M29.9466 20.6287C29.9466 20.6742 29.9329 20.7187 29.9073 20.7566C29.8817 20.7944 29.8453 20.8239 29.8027 20.8414C29.7601 20.8588 29.7133 20.8633 29.6681 20.8545C29.6228 20.8456 29.5813 20.8237 29.5487 20.7915C29.5161 20.7593 29.4939 20.7182 29.4849 20.6736C29.476 20.6289 29.4806 20.5826 29.4982 20.5406C29.5158 20.4985 29.5457 20.4625 29.584 20.4372C29.6224 20.4119 29.6674 20.3984 29.7135 20.3984C29.7753 20.3984 29.8346 20.4227 29.8783 20.4659C29.922 20.509 29.9466 20.5676 29.9466 20.6287Z" fill="#AA6550"/>
<path d="M33.7679 17.8383C33.7418 17.5112 33.6902 17.1865 33.6135 16.8673C33.3826 15.9996 32.8622 15.2343 32.1365 14.695C31.6411 14.3233 31.0639 14.0723 30.4518 13.9626C29.7502 13.8358 29.0271 13.8961 28.3571 14.1374C27.996 14.2647 27.6569 14.4463 27.3518 14.6756C27.0287 14.9078 26.7445 15.1886 26.5095 15.5079C26.0079 16.1823 25.7374 16.9973 25.7374 17.8341C25.7374 18.671 26.0079 19.486 26.5095 20.1604C26.9747 20.7914 27.6171 21.2737 28.3571 21.5475C29.0271 21.7888 29.7502 21.8491 30.4518 21.7223C31.0639 21.6126 31.6411 21.3617 32.1365 20.9899C32.8613 20.451 33.3816 19.6869 33.6135 18.8204C33.6898 18.5011 33.7414 18.1765 33.7679 17.8494C33.7721 17.8705 33.7721 17.8921 33.7679 17.9132V18.1046C33.7678 18.2087 33.7593 18.3126 33.7426 18.4153C33.7283 18.5558 33.703 18.6949 33.6668 18.8315C33.5783 19.2123 33.4305 19.5773 33.2288 19.9135C32.7466 20.7289 31.9902 21.3516 31.0914 21.6729C30.1925 21.9943 29.2081 21.9941 28.3093 21.6724C27.9348 21.5407 27.5826 21.3536 27.2648 21.1175C26.9286 20.8782 26.6337 20.5869 26.3915 20.2547C25.8684 19.5577 25.5859 18.713 25.5859 17.8452C25.5859 16.9775 25.8684 16.1328 26.3915 15.4358C26.6337 15.1036 26.9286 14.8122 27.2648 14.573C27.5826 14.3369 27.9348 14.1498 28.3093 14.0181C29.002 13.7726 29.7486 13.7151 30.4714 13.8517C31.0429 13.9611 31.5843 14.1893 32.0597 14.5213C32.5351 14.8532 32.9336 15.2813 33.2288 15.777C33.4301 16.1134 33.5778 16.4783 33.6668 16.859C33.7033 16.9964 33.7286 17.1365 33.7426 17.2779C33.7594 17.3797 33.7679 17.4827 33.7679 17.5858V17.7773C33.7715 17.7975 33.7715 17.8181 33.7679 17.8383Z" fill="white"/>
<path d="M35.5269 16.6261C35.2144 16.5411 34.8906 16.5037 34.5666 16.5151C34.2472 16.5722 33.9379 16.675 33.6484 16.8203C33.6484 16.8203 33.7074 16.7149 33.8647 16.6094C34.0709 16.4779 34.3056 16.3961 34.5498 16.3708C34.7954 16.3433 35.0442 16.3757 35.2742 16.4652C35.4483 16.5345 35.5354 16.6094 35.5269 16.6261Z" fill="white"/>
<path d="M32.9612 6.10432C32.3996 11.1174 28.6258 15.6311 23.7569 17.1513C25.3265 19.3874 24.3381 23.6431 24.3774 27.1941C24.4167 30.4955 24.4139 31.4387 22.249 33.1227C20.4604 33.5471 19.4411 28.7061 18.099 27.3522C16.7568 25.9984 15.496 24.3311 15.5943 22.4501C15.642 21.5679 15.9902 20.7246 16.038 19.8451C16.0941 18.8686 15.7768 17.9032 15.6027 16.9516C14.8277 12.6931 17.0516 8.11287 20.817 5.88515C24.5824 3.65743 29.5833 3.80724 33.3094 6.0849" fill="#263238"/>
<path d="M22.2131 26.7151C21.7464 25.0957 20.9442 23.5898 19.8573 22.2929L19.9387 22.4649C19.6029 21.7083 19.0973 21.0372 18.4602 20.5022C17.8231 19.9672 17.0711 19.5825 16.2613 19.3771C15.4514 19.1717 14.6049 19.151 13.7857 19.3166C12.9666 19.4823 12.1963 19.8298 11.5332 20.3331C10.8701 20.8363 10.3316 21.482 9.95841 22.2212C9.58522 22.9605 9.38713 23.7739 9.37916 24.6C9.37118 25.4261 9.55352 26.2431 9.91237 26.9892C10.2712 27.7354 10.7972 28.3911 11.4504 28.9067C10.8186 28.768 10.1784 29.3062 10.0465 29.9304C9.9975 30.248 10.0143 30.572 10.0959 30.883C10.1774 31.1939 10.3221 31.4852 10.521 31.7393C11.8379 33.6424 14.8227 34.1446 16.6984 32.7796C18.1866 33.7756 20.3852 33.1958 21.4887 31.7948C22.5922 30.3938 22.7214 28.4185 22.2131 26.7151Z" fill="#263238"/>
<path d="M16.1876 19.3708C16.1291 19.3164 16.0755 19.257 16.0275 19.1933C15.8969 19.0076 15.8017 18.7998 15.7467 18.5802C15.5755 18.0059 15.6569 17.0988 16.1174 16.1389C16.3677 15.6133 16.712 15.1368 17.1338 14.7323C17.5959 14.2523 18.1079 13.8217 18.6613 13.4479C19.2737 13.0311 19.9419 12.7005 20.6465 12.4658C21.3738 12.2189 22.146 12.0275 22.9322 11.8333C23.7184 11.6391 24.4877 11.4477 25.2066 11.198C25.8996 10.962 26.5727 10.6726 27.2198 10.3324C28.3144 9.75661 29.3322 9.04836 30.2496 8.22401C30.868 7.66544 31.4389 7.05769 31.9568 6.40689C32.1421 6.17663 32.2769 5.99076 32.3695 5.85204C32.4133 5.78661 32.4631 5.72532 32.5183 5.66895C32.4819 5.73827 32.4406 5.80501 32.3948 5.86869C32.3078 5.99908 32.1814 6.1905 32.0017 6.42353C31.4981 7.09216 30.9343 7.71429 30.317 8.28227C29.3987 9.12425 28.3759 9.84763 27.2732 10.4351C26.6209 10.7804 25.9421 11.0744 25.2431 11.3145C24.5158 11.567 23.7437 11.7611 22.9574 11.9581C22.1712 12.1551 21.4019 12.341 20.6802 12.5823C19.9839 12.8112 19.3226 13.1332 18.7147 13.5394C18.1677 13.9079 17.6597 14.3298 17.1984 14.7989C16.7875 15.2001 16.4527 15.6708 16.2101 16.1888C15.7467 17.1237 15.6485 18.0087 15.8029 18.5719C15.8744 18.8614 16.0054 19.1333 16.1876 19.3708Z" fill="#455A64"/>
<path d="M32.5097 5.68262C32.4694 5.73825 32.4253 5.79109 32.3777 5.84075C32.2879 5.94339 32.1503 6.08765 31.9734 6.27353C31.464 6.79136 30.923 7.27777 30.3532 7.73C29.5106 8.41436 28.5725 8.97499 27.5678 9.39454C26.9645 9.61478 26.3424 9.78098 25.7089 9.89113C25.0547 10.0215 24.3724 10.1214 23.676 10.2268C22.3641 10.3817 21.0684 10.65 19.8039 11.0286C18.778 11.3594 17.8251 11.8801 16.996 12.5627C16.4387 13.0244 15.9788 13.59 15.6426 14.2273C15.5551 14.4023 15.4773 14.582 15.4096 14.7655C15.3897 14.8312 15.3624 14.8945 15.3281 14.9541C15.3412 14.8873 15.3591 14.8215 15.3815 14.7571C15.4375 14.5672 15.5079 14.3818 15.5921 14.2023C15.9133 13.5459 16.3684 12.9623 16.9286 12.4878C17.7584 11.7844 18.7187 11.2473 19.7562 10.9065C21.0256 10.5147 22.3281 10.2361 23.6479 10.0742C24.3471 9.97158 25.0266 9.86893 25.6752 9.74409C26.3015 9.63696 26.9169 9.47543 27.5144 9.26138C28.5093 8.8529 29.4413 8.30846 30.283 7.644C30.8575 7.20267 31.4077 6.73131 31.9312 6.23191L32.3552 5.82133C32.4019 5.77007 32.4536 5.7236 32.5097 5.68262Z" fill="#455A64"/>
<path d="M39.6415 0.195938C39.6415 0.226456 39.0939 0.245876 38.2375 0.473374C38.0053 0.533098 37.7766 0.60534 37.5524 0.689774C37.3081 0.770231 37.061 0.889528 36.7943 1.00605C35.6586 1.5479 34.6592 2.33258 33.8684 3.30322C33.6943 3.53349 33.5203 3.74434 33.3855 3.96352C33.2511 4.15889 33.1283 4.36176 33.0176 4.5711C32.6049 5.33682 32.4561 5.86395 32.4336 5.85286C32.4523 5.7278 32.4843 5.60504 32.5291 5.48664C32.5695 5.34271 32.6201 5.20179 32.6807 5.06494C32.7519 4.87533 32.8344 4.69005 32.9278 4.51007C33.0326 4.29354 33.1517 4.08408 33.2844 3.88306C33.4164 3.66111 33.5876 3.44194 33.7617 3.20612C34.1634 2.71416 34.6161 2.26505 35.1123 1.8661C35.617 1.47885 36.162 1.1459 36.7381 0.872882C36.9903 0.755751 37.249 0.652932 37.5131 0.564928C37.9308 0.420124 38.3614 0.314237 38.7991 0.248651C38.9474 0.220253 39.0975 0.202634 39.2484 0.195938C39.379 0.180781 39.5109 0.180781 39.6415 0.195938Z" fill="#455A64"/>
<path d="M44.1634 24.1492C44.1634 24.1492 44.1634 24.1297 44.2055 24.0937L44.3375 23.9411C44.4554 23.8052 44.6323 23.6082 44.8317 23.3335C45.0827 23.0099 45.2729 22.6444 45.3932 22.2543C45.4617 22.0117 45.4817 21.7583 45.4522 21.5081C45.4124 21.2288 45.317 20.96 45.1714 20.7174C44.8682 20.1986 44.3712 19.7464 43.9163 19.186C42.8934 17.9214 42.2365 16.4067 42.0153 14.8027C41.9249 13.9039 41.9024 12.9998 41.9479 12.0978C41.9931 11.2037 41.909 10.3078 41.698 9.43726C41.4736 8.67801 41.0853 7.97583 40.5598 7.37909C40.0344 6.78234 39.3843 6.3052 38.6543 5.98052C38.049 5.71245 37.3966 5.56356 36.7337 5.54219C35.4998 5.49298 34.284 5.84692 33.2743 6.54925L33.1058 6.66577C33.0693 6.69073 33.0497 6.70461 33.0469 6.70183C33.3094 6.46272 33.6031 6.25932 33.9201 6.09704C34.7822 5.63997 35.7501 5.41332 36.728 5.43954C37.4052 5.456 38.0727 5.60204 38.6936 5.86955C39.4447 6.19728 40.1142 6.68313 40.6555 7.29314C41.1968 7.90315 41.5966 8.6226 41.8272 9.40119C42.042 10.2844 42.128 11.1933 42.0827 12.1005C42.0375 12.9961 42.0591 13.8937 42.1473 14.786C42.3609 16.367 43.0031 17.8614 44.0061 19.1111C44.4498 19.666 44.9496 20.1265 45.2584 20.6675C45.4081 20.9233 45.5036 21.2064 45.5392 21.4997C45.5673 21.7618 45.5425 22.0268 45.4662 22.2793C45.337 22.6762 45.1342 23.046 44.8682 23.3696C44.7075 23.5771 44.535 23.7753 44.3515 23.9633L44.2055 24.1076C44.1932 24.1231 44.1791 24.137 44.1634 24.1492Z" fill="#455A64"/>
<path d="M43.5143 16.8589C43.4881 16.5318 43.4364 16.2072 43.3599 15.8879C43.129 15.0203 42.6086 14.2549 41.8829 13.7156C41.3497 13.3193 40.7246 13.061 40.0645 12.9641C39.4045 12.8672 38.7304 12.9348 38.1035 13.1608C37.3635 13.4346 36.7211 13.9169 36.2559 14.5479C35.7541 15.2217 35.4835 16.0363 35.4835 16.8728C35.4835 17.7093 35.7541 18.5239 36.2559 19.1976C36.4895 19.518 36.774 19.7991 37.0983 20.0299C37.4041 20.2574 37.743 20.4379 38.1035 20.5653C38.6287 20.7539 39.188 20.832 39.7456 20.7948C40.3031 20.7575 40.8467 20.6057 41.3414 20.349C41.8362 20.0923 42.2713 19.7364 42.6188 19.3041C42.9664 18.8717 43.2188 18.3725 43.3599 17.8382C43.4364 17.5189 43.4881 17.1943 43.5143 16.8672C43.5186 16.8892 43.5186 16.9118 43.5143 16.9338C43.5143 16.9838 43.5143 17.0476 43.5143 17.1225C43.5143 17.2265 43.5059 17.3304 43.4891 17.4332C43.4746 17.5745 43.4492 17.7146 43.4132 17.8521C43.3242 18.2328 43.1765 18.5977 42.9752 18.9341C42.7096 19.3812 42.3598 19.7739 41.9447 20.0909C41.3999 20.5061 40.7578 20.7786 40.078 20.8834C39.3982 20.9881 38.7027 20.9217 38.0558 20.6902C37.6805 20.5599 37.3281 20.3727 37.0112 20.1353C36.6757 19.8941 36.381 19.602 36.138 19.2698C35.6146 18.5734 35.332 17.729 35.332 16.8617C35.332 15.9943 35.6146 15.15 36.138 14.4536C36.3801 14.1214 36.675 13.8301 37.0112 13.5908C37.329 13.3547 37.6812 13.1676 38.0558 13.0359C38.7482 12.7896 39.4948 12.7312 40.2178 12.8667C40.7911 12.9774 41.3337 13.2079 41.8093 13.5428C42.2849 13.8778 42.6824 14.3094 42.9752 14.8087C43.1769 15.1439 43.3246 15.508 43.4132 15.8879C43.4492 16.0255 43.4746 16.1655 43.4891 16.3068C43.5059 16.4096 43.5143 16.5135 43.5143 16.6175C43.5143 16.6925 43.5143 16.7563 43.5143 16.809C43.5169 16.8255 43.5169 16.8424 43.5143 16.8589Z" fill="white"/>
<path d="M22.2094 33.2266C22.1596 33.2022 22.1134 33.1714 22.0718 33.135C21.9848 33.0712 21.8612 32.9741 21.6984 32.8576C21.2444 32.4984 20.8183 32.1061 20.4236 31.6841C19.8144 31.0613 19.3975 30.2799 19.2218 29.4314C19.1636 28.9305 19.1411 28.4262 19.1544 27.9222C19.164 27.3942 19.0113 26.8757 18.7164 26.4352C18.3859 26.0121 18.0186 25.6185 17.6185 25.2589C17.2475 24.904 16.9416 24.4881 16.7143 24.03C16.5132 23.6153 16.366 23.1772 16.2763 22.7261C16.1918 22.335 16.1532 21.9357 16.1612 21.5359C16.1612 21.1669 16.2482 20.8451 16.2819 20.5621C16.3148 20.3203 16.3205 20.0756 16.2988 19.8325C16.251 19.433 16.1724 19.2194 16.1865 19.2139C16.2123 19.2625 16.233 19.3136 16.2482 19.3664C16.2951 19.5163 16.3307 19.6692 16.3549 19.8242C16.3851 20.0721 16.3851 20.3226 16.3549 20.5705C16.3297 20.8479 16.2623 21.1808 16.2538 21.5387C16.2581 22.3806 16.4498 23.2112 16.8154 23.9717C17.0389 24.4148 17.3381 24.8165 17.6999 25.1591C18.1102 25.5222 18.4861 25.9215 18.8231 26.352C18.9862 26.5837 19.1069 26.842 19.1797 27.1149C19.2441 27.3776 19.2789 27.6464 19.2836 27.9167C19.2697 28.4149 19.2894 28.9135 19.3425 29.4092C19.5055 30.2402 19.9015 31.0092 20.4854 31.6286C20.8709 32.0538 21.2846 32.4532 21.7236 32.8243L22.1055 33.1128C22.1438 33.1473 22.1786 33.1854 22.2094 33.2266Z" fill="#455A64"/>
<path d="M19.017 26.7646C19.0219 26.8024 19.0219 26.8406 19.017 26.8784C19.017 26.9533 19.017 27.0615 18.9945 27.203C18.9471 27.6017 18.8528 27.9937 18.7137 28.3709C18.27 29.6371 17.3891 30.7084 16.2256 31.3968C15.0621 32.0852 13.6903 32.3467 12.351 32.1354C11.9499 32.0756 11.557 31.9704 11.1801 31.822C11.0454 31.772 10.9471 31.7165 10.8797 31.686C10.8123 31.6555 10.7786 31.6333 10.7814 31.6278C11.2944 31.8149 11.8249 31.9515 12.3651 32.0356C12.9522 32.1104 13.5472 32.1002 14.1312 32.0051C15.5777 31.7861 16.8799 31.0163 17.759 29.8606C18.1191 29.3971 18.4085 28.8839 18.6183 28.3376C18.8014 27.827 18.9349 27.3003 19.017 26.7646Z" fill="#455A64"/>
<path d="M17.9359 25.46C17.9242 25.5894 17.8968 25.717 17.8544 25.84C17.7549 26.1801 17.6223 26.5099 17.4585 26.8249C16.912 27.8704 16.0842 28.7469 15.0662 29.3577C14.0456 29.9616 12.8857 30.2978 11.6967 30.3342C11.3391 30.345 10.9813 30.3264 10.6269 30.2787C10.4961 30.267 10.3671 30.2409 10.2422 30.201C10.7253 30.2353 11.2098 30.2455 11.6939 30.2315C12.8593 30.1679 13.9917 29.8251 14.9932 29.2328C15.9892 28.6332 16.8083 27.7856 17.3687 26.7749C17.5867 26.3493 17.7761 25.9101 17.9359 25.46Z" fill="#455A64"/>
<path d="M9.72266 22.6978C9.79975 22.6384 9.8848 22.5899 9.97537 22.5535C10.0758 22.5 10.18 22.4537 10.287 22.4148C10.4272 22.3568 10.5707 22.3067 10.7167 22.265C11.0947 22.1528 11.4832 22.0785 11.8763 22.043C12.358 22.0015 12.8427 22.0108 13.3224 22.0708C13.8014 22.1376 14.2719 22.2538 14.7263 22.4176C15.0954 22.5576 15.4491 22.7342 15.7821 22.9447C15.91 23.0242 16.0328 23.1113 16.1499 23.2055C16.2429 23.2714 16.3303 23.3447 16.4111 23.4247C16.4859 23.4868 16.5529 23.5576 16.6104 23.6356C16.5908 23.6578 16.296 23.3581 15.726 23.0307C15.3927 22.8367 15.0421 22.6733 14.6786 22.5424C14.2313 22.3912 13.7707 22.2816 13.3027 22.2151C12.8371 22.1573 12.367 22.1433 11.8988 22.1734C11.5128 22.2031 11.1303 22.2671 10.756 22.3649C10.1045 22.5313 9.75074 22.7228 9.72266 22.6978Z" fill="#455A64"/>
<path d="M16.1858 22.1853C16.1605 22.2158 14.3887 20.7289 12.2322 18.8563C10.0758 16.9837 8.3461 15.4607 8.37137 15.4301C8.39664 15.3996 10.1684 16.8894 12.3277 18.7592C14.487 20.629 16.2082 22.1576 16.1858 22.1853Z" fill="#52B2E5"/>
<path d="M24.2773 19.1467C24.4114 18.8869 24.6105 18.6653 24.8558 18.5031C25.0697 18.3016 25.3328 18.1582 25.6195 18.0869C25.4102 18.2809 25.1847 18.4572 24.9456 18.614C24.7371 18.8084 24.5137 18.9865 24.2773 19.1467Z" fill="white"/>
<path d="M16.3925 20.709C16.3786 20.6917 16.3663 20.6731 16.356 20.6535C16.3307 20.6063 16.2998 20.5509 16.2605 20.4843C16.1516 20.2598 16.0778 20.0204 16.0415 19.7741C15.9378 18.8514 16.2039 17.9252 16.7828 17.194C16.9657 16.9488 17.1757 16.7245 17.409 16.5254C17.6647 16.3137 17.9413 16.1279 18.2345 15.9706C18.8853 15.6337 19.584 15.3961 20.3067 15.2659C21.8258 14.9524 23.5358 15.0273 25.2767 14.7721C26.1286 14.6608 26.9554 14.4085 27.7224 14.0258C28.4232 13.6494 29.0568 13.1621 29.5981 12.5832C30.5167 11.5972 31.2524 10.459 31.7714 9.22079C32.2319 8.16935 32.5211 7.27881 32.7317 6.67958L32.9704 5.97769L33.0349 5.79736C33.0415 5.77632 33.05 5.7559 33.0602 5.73633C33.0602 5.73633 33.0602 5.75852 33.0602 5.80014L33.0097 5.98601L32.7766 6.70732C32.5166 7.57722 32.2101 8.43289 31.8584 9.27073C31.3473 10.5281 30.6122 11.6848 29.6879 12.6858C29.1358 13.2752 28.4887 13.7702 27.7729 14.1506C26.9955 14.5431 26.1561 14.802 25.2907 14.9163C23.5274 15.1771 21.8258 15.0939 20.3236 15.3991C18.8213 15.7042 17.5325 16.3229 16.8558 17.255C16.2878 17.9604 16.0146 18.8538 16.0921 19.7519C16.1405 20.0846 16.2419 20.4076 16.3925 20.709Z" fill="#FAFAFA"/>
<path d="M18.1746 31.7255C18.1158 32.1092 18.0024 32.4828 17.8377 32.8351C17.6479 33.2588 17.4015 33.6554 17.1048 34.0142C16.7114 34.4936 16.2292 34.8947 15.684 35.196C15.0163 35.5535 14.2701 35.744 13.5107 35.7508C12.6341 35.7708 11.7727 35.5217 11.0454 35.0379C10.2453 34.4909 9.6665 33.6823 9.41115 32.7547C9.27473 32.2661 9.24601 31.7543 9.32691 31.2538C9.41586 30.7388 9.61601 30.2486 9.91376 29.8168C10.3992 29.089 11.1439 28.5681 12 28.3576V28.4963C11.1316 28.3635 10.3065 28.032 9.59085 27.5281C8.9274 27.0656 8.39869 26.439 8.05774 25.711C7.75771 25.0566 7.62928 24.3382 7.68429 23.622C7.73067 23.0031 7.94078 22.4071 8.2936 21.8936C8.59039 21.4769 8.97319 21.1271 9.41676 20.8672C9.74635 20.6749 10.106 20.538 10.481 20.4621C10.7157 20.4161 10.9551 20.3984 11.1942 20.4094L11.3767 20.4288C11.3972 20.4258 11.418 20.4258 11.4385 20.4288C11.1203 20.4126 10.8013 20.4368 10.4894 20.501C10.124 20.5835 9.77486 20.7251 9.45607 20.9199C9.03061 21.1805 8.66521 21.5264 8.38346 21.9352C8.04595 22.4372 7.84748 23.0178 7.80784 23.6192C7.76089 24.3156 7.8902 25.0125 8.18409 25.6471C8.51929 26.3523 9.03521 26.9586 9.68071 27.406C10.3816 27.8937 11.1868 28.2155 12.0337 28.3465L12.396 28.4019L12.0393 28.4852C11.2181 28.6883 10.5044 29.1895 10.0401 29.8889C9.75394 30.3059 9.56237 30.7791 9.47854 31.276C9.40161 31.757 9.4284 32.2486 9.55716 32.7186C9.80065 33.6189 10.3586 34.4051 11.1324 34.938C11.8359 35.409 12.6694 35.6541 13.5191 35.6399C14.2608 35.6372 14.9905 35.4553 15.6447 35.11C16.1812 34.8206 16.6575 34.4338 17.0487 33.9698C17.3467 33.6193 17.5977 33.2324 17.7956 32.8185C17.9183 32.5559 18.0224 32.2852 18.1072 32.0084C18.1325 31.9197 18.1522 31.8475 18.1662 31.7893L18.1746 31.7255Z" fill="#263238"/>
<path d="M16.5191 19.7268C16.4953 19.7199 16.4726 19.7096 16.4517 19.6963L16.2552 19.5936C16.0094 19.4546 15.7756 19.2959 15.556 19.1193C14.7402 18.461 14.1177 17.5989 13.7533 16.6225C13.3304 15.4651 13.293 14.2044 13.6466 13.0246C14.0002 11.8447 14.7263 10.8075 15.7188 10.0642C16.5131 9.4859 17.4062 9.05363 18.3555 8.78805C19.3046 8.52329 20.2782 8.35321 21.2617 8.28036C22.2051 8.19159 23.1149 8.14998 23.9797 8.09172C24.7983 8.04083 25.6137 7.94823 26.4226 7.8143C27.1251 7.69499 27.8143 7.50918 28.4808 7.25945C29.4482 6.9068 30.3302 6.35773 31.0697 5.64763C31.2644 5.44797 31.4454 5.23574 31.6116 5.01233L31.7408 4.83756C31.7541 4.8162 31.7701 4.79663 31.7885 4.7793C31.6037 5.1101 31.3752 5.41516 31.109 5.68647C30.3751 6.42152 29.4878 6.98957 28.5089 7.351C27.8378 7.60876 27.1428 7.8011 26.4338 7.92526C25.6213 8.06043 24.8021 8.15304 23.9797 8.20269C22.2528 8.33862 20.3294 8.35249 18.406 8.91566C17.4742 9.17711 16.5967 9.59979 15.8143 10.1641C14.8415 10.8898 14.127 11.902 13.7738 13.0546C13.4205 14.2073 13.4468 15.4411 13.8488 16.5781C14.201 17.5387 14.8011 18.3917 15.5897 19.0527C15.8036 19.2335 16.0308 19.3986 16.2692 19.5465L16.4545 19.6602C16.479 19.6794 16.5007 19.7018 16.5191 19.7268Z" fill="#263238"/>
<path d="M47.8117 15.6353C47.7795 15.6732 47.7397 15.7042 47.6947 15.7262C47.6498 15.7481 47.6007 15.7606 47.5506 15.7629C47.4048 15.7657 47.2615 15.7251 47.1394 15.6465C47.0172 15.5678 46.9218 15.4547 46.8655 15.3218C46.8222 15.2253 46.8032 15.1199 46.8101 15.0146C46.8169 14.9093 46.8494 14.8072 46.9048 14.717C47.0345 14.5037 47.2319 14.3389 47.4664 14.2482C47.7525 14.1459 48.0604 14.1177 48.3607 14.1663C48.661 14.2149 48.9438 14.3385 49.182 14.5256C49.4691 14.7304 49.6904 15.0126 49.8194 15.3384C49.9557 15.6926 49.9831 16.0786 49.898 16.4481C49.8119 16.8486 49.5925 17.209 49.2747 17.4718C48.9381 17.7473 48.5271 17.919 48.0925 17.9656C47.629 17.9988 47.1638 17.9288 46.7313 17.7608C46.2988 17.5927 45.91 17.3309 45.5935 16.9946C45.2448 16.6538 44.9722 16.2446 44.7933 15.7934C44.6105 15.3244 44.5619 14.8148 44.6529 14.3203C44.75 13.8368 44.9026 13.3659 45.1077 12.9165C45.2959 12.4727 45.47 12.0344 45.616 11.596C45.9079 10.754 46.0964 9.88031 46.1776 8.99383C46.2529 8.19403 46.2036 7.38754 46.0315 6.60247C45.8783 5.91497 45.6077 5.25827 45.2313 4.66054C44.6891 3.79111 43.9108 3.08946 42.985 2.63537C42.7319 2.52197 42.4699 2.42919 42.2016 2.35795L41.9882 2.30524C41.9636 2.3004 41.94 2.29198 41.918 2.28027H41.991L42.2072 2.31911C42.4829 2.38105 42.7518 2.46931 43.0102 2.58266C43.9568 3.02688 44.7548 3.72964 45.3099 4.60783C45.7005 5.20304 45.9854 5.85979 46.1523 6.54977C46.3331 7.34669 46.388 8.16645 46.3151 8.97996C46.2361 9.8776 46.0475 10.7625 45.7536 11.6155C45.6075 12.0593 45.4306 12.5032 45.2425 12.9443C45.0434 13.3891 44.8946 13.8543 44.7989 14.3314C44.715 14.7973 44.7616 15.2769 44.9337 15.7185C45.1033 16.1526 45.3646 16.546 45.7002 16.8726C46.0006 17.1945 46.3701 17.4461 46.7816 17.6088C47.1931 17.7715 47.6362 17.8413 48.0785 17.813C48.4905 17.7715 48.881 17.6114 49.2017 17.3525C49.5004 17.1094 49.7081 16.7744 49.7913 16.4009C49.8736 16.0526 49.8512 15.6882 49.7267 15.3523C49.6057 15.0442 49.3994 14.776 49.1315 14.5783C48.9076 14.3987 48.6408 14.2788 48.3566 14.2303C48.0725 14.1817 47.7804 14.206 47.5085 14.3009C47.2885 14.3811 47.1018 14.5314 46.9778 14.7281C46.9243 14.8095 46.8917 14.9026 46.8829 14.9993C46.8741 15.096 46.8893 15.1934 46.9273 15.2829C46.9783 15.4082 47.0653 15.5159 47.1775 15.5928C47.2898 15.6697 47.4225 15.7125 47.559 15.7157C47.649 15.7116 47.7363 15.6839 47.8117 15.6353Z" fill="#263238"/>
<g opacity="0.2">
<path opacity="0.2" d="M46.0202 78.4215C47.3849 78.0415 48.8 79.2538 50.1843 78.9403C51.0267 78.7461 51.6613 78.0026 52.0432 77.2231C52.425 76.4435 52.63 75.5835 53.0344 74.8123C53.4387 74.0411 54.1126 73.3336 54.983 73.2143C55.7805 73.1089 56.7267 73.4779 57.3192 72.9369C57.7769 72.5208 57.7151 71.7496 57.3501 71.253C56.9851 70.7564 56.4066 70.4651 55.8479 70.1932C55.235 69.8625 54.5834 69.6072 53.9076 69.4331C53.2249 69.2615 52.5022 69.3444 51.8775 69.6661C50.7094 70.3375 50.4736 71.8605 50.1338 73.1533C49.9265 74.0628 49.5369 74.9222 48.9882 75.6806C48.4309 76.4412 47.6054 76.9678 46.6745 77.1565C46.316 77.1693 45.9645 77.2583 45.644 77.4173C45.3491 77.617 45.234 78.1164 45.5401 78.3022" fill="black"/>
</g>
<path d="M38.9062 73.4374L44.0222 71.6757L48.6076 64.593C48.8312 64.2475 49.1239 63.9508 49.4677 63.7208C49.8114 63.4909 50.199 63.3327 50.6068 63.2558L58.8311 61.7217C58.9355 62.0313 58.9215 62.368 58.7916 62.6681C58.6617 62.9682 58.4251 63.2108 58.1263 63.3502C57.0285 63.9688 52.0894 65.1063 52.0894 65.1063L59.696 64.9787C59.696 64.9787 59.929 66.0634 59.067 66.4518C58.205 66.8402 52.7857 67.0344 52.7857 67.0344L59.7296 68.0109C59.7296 68.0109 59.769 69.1012 58.1825 69.1206C56.6204 69.1066 55.0599 69.014 53.5073 68.8432C53.443 68.8336 53.3774 68.8495 53.3248 68.8874C53.2722 68.9253 53.2369 68.9822 53.2265 69.0457C53.2164 69.1069 53.2302 69.1697 53.2651 69.2212C53.3 69.2727 53.3535 69.3092 53.4147 69.3231L58.0281 70.3996C58.1611 70.4288 58.2806 70.5007 58.368 70.604C58.4554 70.7074 58.5057 70.8364 58.5112 70.9709C58.5166 71.1055 58.4769 71.2381 58.3981 71.348C58.3194 71.4579 58.206 71.539 58.0758 71.5786C57.9914 71.5997 57.9039 71.6054 57.8175 71.5953C57.0341 71.5176 52.3364 70.9294 52.3364 70.9294C52.3364 70.9294 50.6798 76.6666 49.6072 77.1299C48.5345 77.5932 46.2854 77.7208 46.2854 77.7208L41.512 79.5879L38.9062 73.4374Z" fill="#B78876"/>
<path d="M59.1691 64.9557C59.0381 64.9831 58.9043 64.9961 58.7704 64.9946L57.6809 65.0473C56.7628 65.0861 55.4908 65.1305 54.0896 65.1666L52.1101 65.2165C51.5775 65.1945 51.0454 65.2697 50.5404 65.4384C50.2081 65.5676 49.9259 65.7979 49.7346 66.0959C49.6731 66.2105 49.6196 66.3291 49.5745 66.4509C49.5689 66.4169 49.5689 66.3823 49.5745 66.3483C49.5961 66.2519 49.63 66.1587 49.6756 66.0709C49.8585 65.7462 50.1462 65.4913 50.4927 65.3469C51.0061 65.1588 51.5515 65.0702 52.0988 65.0861L54.0644 65.0251C55.4683 64.989 56.7403 64.9613 57.6585 64.9474H58.7479C58.8883 64.9386 59.0292 64.9414 59.1691 64.9557Z" fill="#AA6550"/>
<path d="M59.2858 68.0299C59.1626 68.0346 59.0393 68.0262 58.918 68.0049L57.924 67.8801C57.0816 67.7719 55.9247 67.6026 54.6471 67.4195C54.0098 67.3308 53.4004 67.217 52.8501 67.1699C52.3674 67.1124 51.8783 67.1993 51.4461 67.4195C51.1581 67.5777 50.9096 67.7976 50.7189 68.0632C50.5841 68.2518 50.5308 68.3711 50.5195 68.3655C50.524 68.3338 50.5334 68.3029 50.5476 68.274C50.5818 68.1893 50.6231 68.1077 50.6712 68.0299C50.8518 67.7424 51.1004 67.5025 51.3956 67.3308C51.8415 67.085 52.3537 66.9822 52.8613 67.0367C53.4229 67.0783 54.0322 67.1893 54.6724 67.2753C55.95 67.4639 57.1069 67.6442 57.9408 67.7802L58.9292 67.9494C59.0504 67.9647 59.1699 67.9917 59.2858 68.0299Z" fill="#AA6550"/>
<path d="M55.4233 69.7741C55.1518 69.7361 54.8834 69.6786 54.6203 69.6021C54.1261 69.4828 53.4466 69.3052 52.6941 69.1526C52.515 69.1112 52.3328 69.0842 52.1493 69.0722C51.9849 69.0786 51.8247 69.1253 51.6832 69.2081C51.4318 69.3455 51.2201 69.5442 51.0683 69.7852C50.9425 70.0205 50.8598 70.276 50.824 70.5398C50.8005 70.4682 50.7947 70.3921 50.8071 70.3178C50.8218 70.1142 50.8792 69.9158 50.9756 69.7352C51.1265 69.4676 51.3476 69.2453 51.6158 69.0916C51.7771 68.9966 51.9591 68.9414 52.1465 68.9307C52.3402 68.941 52.5327 68.967 52.7221 69.0084C53.4859 69.1665 54.1598 69.3579 54.6456 69.5022C54.9133 69.5671 55.1739 69.6582 55.4233 69.7741Z" fill="#AA6550"/>
<path d="M0.929688 77.2462L16.2749 75.3819L43.1886 71.0596L46.662 79.6847C36.5536 83.147 26.1812 86.2708 16.0053 89.0173C15.1737 89.1812 14.3259 89.252 13.4782 89.2282C10.0806 89.242 1.70186 87.8937 0.929688 77.2462Z" fill="#52B2E5"/>
<path d="M46.6635 79.6848C46.6373 79.6352 46.6139 79.5843 46.5933 79.5322C46.5456 79.424 46.4838 79.2742 46.3996 79.08C46.2339 78.675 45.9924 78.0924 45.6864 77.3489L43.134 71.0791L43.1986 71.1152L30.1222 73.2736C27.0335 73.7979 24.0711 74.1391 21.3868 74.4914C20.0418 74.6662 18.767 74.841 17.5793 75.0463C16.984 75.1406 16.4112 75.2331 15.8608 75.3237C15.3334 75.4073 14.8113 75.5203 14.2968 75.6622C12.7473 76.1446 11.442 77.1921 10.6466 78.5918C10.4287 78.9682 10.249 79.365 10.1102 79.7764C10.0625 79.9179 10.0316 80.0288 10.012 80.1009C10.0023 80.139 9.98913 80.1762 9.97266 80.2119C9.99883 80.0617 10.0354 79.9134 10.0822 79.768C10.2101 79.35 10.3823 78.9464 10.596 78.564C10.9336 77.9567 11.3679 77.4068 11.882 76.9355C12.5703 76.3138 13.3863 75.8464 14.2744 75.5651C14.7925 75.4193 15.3184 75.3017 15.8496 75.2127C16.4112 75.1129 16.9728 75.0102 17.568 74.9131C18.7586 74.7189 20.0334 74.5358 21.3755 74.3583C24.0627 74.0004 27.0222 73.6564 30.1053 73.1293L43.1873 71.0015H43.2351L43.2519 71.0459C44.2965 73.6647 45.1557 75.8231 45.7566 77.3323L46.4417 79.0745C46.5175 79.2715 46.5737 79.424 46.6186 79.5322C46.6635 79.6404 46.6635 79.6848 46.6635 79.6848Z" fill="#263238"/>
<path d="M9.1875 88.7689C9.2294 88.7733 9.27078 88.7816 9.31105 88.7939L9.66765 88.8799C9.98214 88.9465 10.4454 89.0519 11.0519 89.124C12.7654 89.3326 14.5023 89.2501 16.1876 88.8799C16.7211 88.7689 17.2715 88.6191 17.8471 88.4582L19.6385 87.9588L23.5696 86.8491C26.3466 86.0502 29.3932 85.1541 32.5801 84.1748C37.9152 82.538 42.8177 80.9345 46.6197 79.6389L46.586 79.7138C45.5358 77.0783 44.6738 74.9227 44.0757 73.4163C43.7809 72.6701 43.5534 72.0847 43.3934 71.6797C43.3176 71.4855 43.2614 71.3357 43.2193 71.2247C43.1772 71.1137 43.1659 71.0693 43.1659 71.0693C43.1659 71.0693 43.1912 71.1193 43.2361 71.2191C43.2811 71.319 43.3428 71.4771 43.4243 71.6686L44.1347 73.3914L46.6927 79.6722L46.7151 79.7277L46.659 79.7471C42.8514 81.0621 37.9545 82.6739 32.6195 84.3135C29.4325 85.2928 26.3831 86.1861 23.6033 86.9795L19.6497 88.0892L17.8555 88.5775C17.2939 88.7356 16.7323 88.8854 16.1904 88.9936C14.4932 89.3568 12.7449 89.4253 11.0239 89.1961C10.3993 89.1125 9.78428 88.9694 9.1875 88.7689Z" fill="#263238"/>
<path d="M15.1357 75.3802C15.0099 75.4131 14.8809 75.4326 14.751 75.4385L13.698 75.5411L10.2274 75.8769L6.75686 76.2431L5.70389 76.3513C5.57596 76.3729 5.446 76.3804 5.31641 76.3735C5.44128 76.3371 5.56902 76.3111 5.69828 76.2958C5.94538 76.257 6.30198 76.2043 6.74563 76.1432C7.63012 76.0211 8.85437 75.8658 10.2106 75.7354C11.5668 75.605 12.7995 75.4995 13.6896 75.4413C14.136 75.4107 14.4983 75.3913 14.7482 75.3802C14.8771 75.3694 15.0067 75.3694 15.1357 75.3802Z" fill="#263238"/>
<path d="M67.3174 30.0133C67.0366 27.8133 65.1581 25.7632 62.9146 25.7632C61.5921 25.7632 60.3314 26.4456 59.4272 27.4027C59.1057 27.7245 58.81 28.0705 58.5427 28.4375C58.3526 28.0257 58.1311 27.6288 57.8801 27.2502C57.1837 26.1405 56.0858 25.2222 54.7914 24.9642C52.59 24.5314 50.338 26.1738 49.6276 28.2766C48.9172 30.3795 49.5097 32.7376 50.675 34.6297C51.8403 36.5217 53.8479 38.9991 57.5459 40.2253C60.0927 39.9035 63.5071 37.6703 65.0262 36.039C66.5452 34.4077 67.5926 32.2133 67.3174 30.0133Z" fill="#FF0000"/>
<path d="M66.5072 33.9612H66.4342L66.218 33.9474L65.3756 33.878L62.3262 33.6006L62.3796 33.5673L61.1104 36.8409L61.0318 37.0378L60.9812 36.8325C60.5966 35.2429 60.1613 33.4647 59.7037 31.5893L59.2909 29.8831L59.4201 29.9109L57.0923 33.0735L57.0698 33.1012H57.0446L51.6843 32.5464L50.168 32.3799L49.7665 32.33L49.6289 32.305C49.6756 32.3007 49.7226 32.3007 49.7693 32.305L50.1708 32.3355L51.6927 32.4659L57.0558 32.9653L56.9968 32.993L59.3134 29.8221L59.406 29.6973L59.4425 29.8471C59.5773 30.4019 59.7233 30.9762 59.8581 31.5588C60.3102 33.4341 60.7398 35.2152 61.1245 36.8048H60.9953L62.2925 33.5396L62.3066 33.5035H62.3459L65.3925 33.8253L66.2208 33.9224L66.4342 33.9501L66.5072 33.9612Z" fill="#FAFAFA"/>
</svg>
