<svg width="42" height="48" viewBox="0 0 42 48" fill="none" xmlns="http://www.w3.org/2000/svg">
<path d="M29.9447 30.0002L21 38.943L12.0553 30.0002C5.35312 30.2908 0 35.7752 0 42.543C0 43.9904 0.574952 45.3784 1.59837 46.4018C2.62179 47.4253 4.00985 48.0002 5.45719 48.0002H36.5428C37.9902 48.0002 39.3782 47.4253 40.4016 46.4018C41.425 45.3784 42 43.9904 42 42.543C42 35.7752 36.6469 30.2908 29.9447 30.0002ZM21 28.5002C24.1826 28.5002 27.2348 27.2359 29.4853 24.9855C31.7357 22.7351 33 19.6828 33 16.5002V6.17084C33.0007 5.55959 32.8148 4.9627 32.4669 4.46007C32.1191 3.95743 31.626 3.57304 31.0537 3.35834L23.1066 0.381775C21.7484 -0.127502 20.2516 -0.127502 18.8934 0.381775L10.9462 3.36209C10.3745 3.57656 9.88191 3.96038 9.53413 4.46228C9.18636 4.96417 9.00002 5.56023 9 6.17084V16.5002C9 19.6828 10.2643 22.7351 12.5147 24.9855C14.7652 27.2359 17.8174 28.5002 21 28.5002ZM17.25 6.71927C17.25 6.59495 17.2994 6.47573 17.3873 6.38782C17.4752 6.29991 17.5944 6.25052 17.7188 6.25052H19.7503V4.21896C19.7503 4.09464 19.7997 3.97541 19.8876 3.88751C19.9755 3.7996 20.0947 3.75021 20.2191 3.75021H21.7809C21.9053 3.75021 22.0245 3.7996 22.1124 3.88751C22.2003 3.97541 22.2497 4.09464 22.2497 4.21896V6.25052H24.2812C24.4056 6.25052 24.5248 6.29991 24.6127 6.38782C24.7006 6.47573 24.75 6.59495 24.75 6.71927V8.28115C24.75 8.40547 24.7006 8.5247 24.6127 8.61261C24.5248 8.70051 24.4056 8.7499 24.2812 8.7499H22.2497V10.7815C22.2497 10.9058 22.2003 11.025 22.1124 11.1129C22.0245 11.2008 21.9053 11.2502 21.7809 11.2502H20.2191C20.0947 11.2502 19.9755 11.2008 19.8876 11.1129C19.7997 11.025 19.7503 10.9058 19.7503 10.7815V8.7499H17.7188C17.5944 8.7499 17.4752 8.70051 17.3873 8.61261C17.2994 8.5247 17.25 8.40547 17.25 8.28115V6.71927ZM13.5 15.0002H28.5V16.5002C28.5 18.4893 27.7098 20.397 26.3033 21.8035C24.8968 23.21 22.9891 24.0002 21 24.0002C19.0109 24.0002 17.1032 23.21 15.6967 21.8035C14.2902 20.397 13.5 18.4893 13.5 16.5002V15.0002Z" fill="#52B2E5"/>
</svg>
