<svg xmlns="http://www.w3.org/2000/svg"  viewBox="0 0 80 80" width="64px" height="64px"><path fill="#8bb7f0" d="M8,75.5c-1.93,0-3.5-1.57-3.5-3.5V8c0-1.93,1.57-3.5,3.5-3.5h64c1.93,0,3.5,1.57,3.5,3.5v64 c0,1.93-1.57,3.5-3.5,3.5H8z"/><path fill="#4e7ab5" d="M72,5c1.654,0,3,1.346,3,3v64c0,1.654-1.346,3-3,3H8c-1.654,0-3-1.346-3-3V8c0-1.654,1.346-3,3-3H72 M72,4H8C5.791,4,4,5.791,4,8v64c0,2.209,1.791,4,4,4h64c2.209,0,4-1.791,4-4V8C76,5.791,74.209,4,72,4L72,4z"/><path fill="none" stroke="#fff" stroke-miterlimit="10" stroke-width="6" d="M22 40.107L33.929 52.036 60.769 25.195"/></svg>